<svg width="304" height="32" viewBox="0 0 304 32" fill="none" xmlns="http://www.w3.org/2000/svg">
<g clip-path="url(#clip0_141_1425)">
<rect width="54" height="27" transform="translate(0 3)" fill="white"/>
<rect y="3" width="13.5" height="27" fill="#EB2D37"/>
<path d="M27.0205 5.53125L25.2528 9.13909C25.089 9.45207 24.8057 9.40736 24.5396 9.24227L22.8606 8.26894L23.9458 13.6412C24.1232 14.329 23.5567 14.642 23.1575 14.1639L20.8984 11.6188L20.2602 12.9361C20.0964 13.28 19.919 13.4314 19.2808 13.28L16.9944 12.7882L17.8851 15.6944C18.0182 16.1312 18.0045 16.3376 17.752 16.5336L16.875 17.0736L21.615 20.9841C22.0177 21.328 21.9699 21.672 21.7925 22.181L21.2738 23.512L25.2971 22.7347C26.1742 22.5524 26.5461 22.5387 26.5461 23.0305L26.3687 27.4689H27.6723L27.4948 23.0167C27.5085 22.5834 27.8804 22.5834 28.4162 22.7175L32.7535 23.5086L32.3236 22.1775C32.1461 21.6238 31.9823 21.4725 32.4566 20.9807L37.125 17.0151L36.3231 16.6127C35.9067 16.4304 36.0842 16.1175 36.1729 15.7426V15.6807L36.9305 12.8088L34.6748 13.2869L34.6644 13.2888C34.2805 13.3601 33.9906 13.414 33.7978 13.0152L33.2176 11.6842L31.0336 14.0367C30.4364 14.697 29.887 14.4116 30.0952 13.4382L31.0916 8.48218L29.5594 9.24571C29.2045 9.42456 29.0236 9.45551 28.8018 9.08062L27.0205 5.53125Z" fill="#EB2D37"/>
<rect x="40.5" y="3" width="13.5" height="27" fill="#EB2D37"/>
</g>
<path d="M89.184 14H87.904L87.6 12.656C87.0667 13.264 86.5333 13.6853 86 13.92C85.4667 14.1547 84.8533 14.272 84.16 14.272C83.3067 14.272 82.5387 14.1173 81.856 13.808C81.184 13.488 80.6133 13.056 80.144 12.512C79.6747 11.968 79.312 11.3333 79.056 10.608C78.8107 9.88267 78.688 9.10933 78.688 8.288C78.688 7.47733 78.8107 6.70933 79.056 5.984C79.312 5.25867 79.6747 4.624 80.144 4.08C80.6133 3.536 81.184 3.104 81.856 2.784C82.5387 2.464 83.3067 2.304 84.16 2.304C84.7787 2.304 85.3653 2.38933 85.92 2.56C86.4853 2.72 86.9867 2.96533 87.424 3.296C87.8613 3.616 88.224 4.02133 88.512 4.512C88.8 5.00267 88.9813 5.568 89.056 6.208H87.104C87.0507 5.83467 86.9333 5.50933 86.752 5.232C86.5813 4.944 86.3627 4.704 86.096 4.512C85.8293 4.32 85.5307 4.176 85.2 4.08C84.8693 3.984 84.5227 3.936 84.16 3.936C83.552 3.936 83.024 4.05867 82.576 4.304C82.1387 4.54933 81.7813 4.88 81.504 5.296C81.2267 5.70133 81.0187 6.16533 80.88 6.688C80.752 7.21067 80.688 7.744 80.688 8.288C80.688 8.832 80.752 9.36533 80.88 9.888C81.0187 10.4107 81.2267 10.88 81.504 11.296C81.7813 11.7013 82.1387 12.0267 82.576 12.272C83.024 12.5173 83.552 12.64 84.16 12.64C84.672 12.6507 85.1253 12.5867 85.52 12.448C85.9147 12.2987 86.2453 12.0907 86.512 11.824C86.7893 11.5467 86.9973 11.2107 87.136 10.816C87.2747 10.4213 87.3493 9.984 87.36 9.504H84.32V7.984H89.184V14ZM94.8926 14.224C94.2313 14.224 93.6393 14.1173 93.1166 13.904C92.6046 13.68 92.1673 13.376 91.8046 12.992C91.4526 12.608 91.1806 12.1493 90.9886 11.616C90.8073 11.0827 90.7166 10.496 90.7166 9.856C90.7166 9.22667 90.8073 8.64533 90.9886 8.112C91.1806 7.57867 91.4526 7.12 91.8046 6.736C92.1673 6.352 92.6046 6.05333 93.1166 5.84C93.6393 5.616 94.2313 5.504 94.8926 5.504C95.554 5.504 96.1406 5.616 96.6526 5.84C97.1753 6.05333 97.6126 6.352 97.9646 6.736C98.3273 7.12 98.5993 7.57867 98.7806 8.112C98.9726 8.64533 99.0686 9.22667 99.0686 9.856C99.0686 10.496 98.9726 11.0827 98.7806 11.616C98.5993 12.1493 98.3273 12.608 97.9646 12.992C97.6126 13.376 97.1753 13.68 96.6526 13.904C96.1406 14.1173 95.554 14.224 94.8926 14.224ZM94.8926 12.784C95.298 12.784 95.65 12.6987 95.9486 12.528C96.2473 12.3573 96.4926 12.1333 96.6846 11.856C96.8766 11.5787 97.0153 11.2693 97.1006 10.928C97.1966 10.576 97.2446 10.2187 97.2446 9.856C97.2446 9.504 97.1966 9.152 97.1006 8.8C97.0153 8.448 96.8766 8.13867 96.6846 7.872C96.4926 7.59467 96.2473 7.37067 95.9486 7.2C95.65 7.02933 95.298 6.944 94.8926 6.944C94.4873 6.944 94.1353 7.02933 93.8366 7.2C93.538 7.37067 93.2926 7.59467 93.1006 7.872C92.9086 8.13867 92.7646 8.448 92.6686 8.8C92.5833 9.152 92.5406 9.504 92.5406 9.856C92.5406 10.2187 92.5833 10.576 92.6686 10.928C92.7646 11.2693 92.9086 11.5787 93.1006 11.856C93.2926 12.1333 93.538 12.3573 93.8366 12.528C94.1353 12.6987 94.4873 12.784 94.8926 12.784ZM107.849 14H106.057V12.848H106.025C105.801 13.264 105.465 13.6 105.017 13.856C104.58 14.1013 104.132 14.224 103.673 14.224C102.585 14.224 101.796 13.9573 101.305 13.424C100.825 12.88 100.585 12.064 100.585 10.976V5.728H102.409V10.8C102.409 11.5253 102.548 12.0373 102.825 12.336C103.102 12.6347 103.492 12.784 103.993 12.784C104.377 12.784 104.697 12.7253 104.953 12.608C105.209 12.4907 105.417 12.336 105.577 12.144C105.737 11.9413 105.849 11.7013 105.913 11.424C105.988 11.1467 106.025 10.848 106.025 10.528V5.728H107.849V14ZM108.957 5.728H110.941L113.036 12.08H113.069L115.085 5.728H116.973L114.013 14H111.965L108.957 5.728ZM123.749 9.136C123.728 8.848 123.664 8.57067 123.557 8.304C123.461 8.03733 123.323 7.808 123.141 7.616C122.971 7.41333 122.757 7.25333 122.501 7.136C122.256 7.008 121.979 6.944 121.669 6.944C121.349 6.944 121.056 7.00267 120.789 7.12C120.533 7.22667 120.309 7.38133 120.117 7.584C119.936 7.776 119.787 8.00533 119.669 8.272C119.563 8.53867 119.504 8.82667 119.493 9.136H123.749ZM119.493 10.336C119.493 10.656 119.536 10.9653 119.621 11.264C119.717 11.5627 119.856 11.824 120.037 12.048C120.219 12.272 120.448 12.4533 120.725 12.592C121.003 12.72 121.333 12.784 121.717 12.784C122.251 12.784 122.677 12.672 122.997 12.448C123.328 12.2133 123.573 11.8667 123.733 11.408H125.461C125.365 11.856 125.2 12.256 124.965 12.608C124.731 12.96 124.448 13.2587 124.117 13.504C123.787 13.7387 123.413 13.9147 122.997 14.032C122.592 14.16 122.165 14.224 121.717 14.224C121.067 14.224 120.491 14.1173 119.989 13.904C119.488 13.6907 119.061 13.392 118.709 13.008C118.368 12.624 118.107 12.1653 117.925 11.632C117.755 11.0987 117.669 10.512 117.669 9.872C117.669 9.28533 117.76 8.73067 117.941 8.208C118.133 7.67467 118.4 7.21067 118.741 6.816C119.093 6.41067 119.515 6.09067 120.005 5.856C120.496 5.62133 121.051 5.504 121.669 5.504C122.32 5.504 122.901 5.64267 123.413 5.92C123.936 6.18667 124.368 6.544 124.709 6.992C125.051 7.44 125.296 7.95733 125.445 8.544C125.605 9.12 125.648 9.71733 125.573 10.336H119.493ZM126.96 5.728H128.672V7.328H128.704C128.757 7.104 128.859 6.88533 129.008 6.672C129.168 6.45867 129.355 6.26667 129.568 6.096C129.792 5.91467 130.037 5.77067 130.304 5.664C130.571 5.55733 130.843 5.504 131.12 5.504C131.333 5.504 131.477 5.50933 131.552 5.52C131.637 5.53067 131.723 5.54133 131.808 5.552V7.312C131.68 7.29067 131.547 7.27467 131.408 7.264C131.28 7.24267 131.152 7.232 131.024 7.232C130.715 7.232 130.421 7.296 130.144 7.424C129.877 7.54133 129.643 7.72267 129.44 7.968C129.237 8.20267 129.077 8.496 128.96 8.848C128.843 9.2 128.784 9.60533 128.784 10.064V14H126.96V5.728ZM132.866 5.728H134.594V6.944L134.626 6.976C134.904 6.51733 135.266 6.16 135.714 5.904C136.162 5.63733 136.658 5.504 137.202 5.504C138.109 5.504 138.824 5.73867 139.346 6.208C139.869 6.67733 140.13 7.38133 140.13 8.32V14H138.306V8.8C138.285 8.14933 138.146 7.68 137.89 7.392C137.634 7.09333 137.234 6.944 136.69 6.944C136.381 6.944 136.104 7.00267 135.858 7.12C135.613 7.22667 135.405 7.38133 135.234 7.584C135.064 7.776 134.93 8.00533 134.834 8.272C134.738 8.53867 134.69 8.82133 134.69 9.12V14H132.866V5.728ZM147.734 9.136C147.712 8.848 147.648 8.57067 147.542 8.304C147.446 8.03733 147.307 7.808 147.126 7.616C146.955 7.41333 146.742 7.25333 146.486 7.136C146.24 7.008 145.963 6.944 145.654 6.944C145.334 6.944 145.04 7.00267 144.774 7.12C144.518 7.22667 144.294 7.38133 144.102 7.584C143.92 7.776 143.771 8.00533 143.654 8.272C143.547 8.53867 143.488 8.82667 143.478 9.136H147.734ZM143.478 10.336C143.478 10.656 143.52 10.9653 143.606 11.264C143.702 11.5627 143.84 11.824 144.022 12.048C144.203 12.272 144.432 12.4533 144.71 12.592C144.987 12.72 145.318 12.784 145.702 12.784C146.235 12.784 146.662 12.672 146.982 12.448C147.312 12.2133 147.558 11.8667 147.718 11.408H149.446C149.35 11.856 149.184 12.256 148.95 12.608C148.715 12.96 148.432 13.2587 148.102 13.504C147.771 13.7387 147.398 13.9147 146.982 14.032C146.576 14.16 146.15 14.224 145.702 14.224C145.051 14.224 144.475 14.1173 143.974 13.904C143.472 13.6907 143.046 13.392 142.694 13.008C142.352 12.624 142.091 12.1653 141.91 11.632C141.739 11.0987 141.654 10.512 141.654 9.872C141.654 9.28533 141.744 8.73067 141.926 8.208C142.118 7.67467 142.384 7.21067 142.726 6.816C143.078 6.41067 143.499 6.09067 143.99 5.856C144.48 5.62133 145.035 5.504 145.654 5.504C146.304 5.504 146.886 5.64267 147.398 5.92C147.92 6.18667 148.352 6.544 148.694 6.992C149.035 7.44 149.28 7.95733 149.43 8.544C149.59 9.12 149.632 9.71733 149.558 10.336H143.478ZM150.944 5.728H152.672V6.88H152.72C152.859 6.67733 153.008 6.49067 153.168 6.32C153.328 6.14933 153.504 6.00533 153.696 5.888C153.899 5.77067 154.128 5.68 154.384 5.616C154.64 5.54133 154.934 5.504 155.264 5.504C155.766 5.504 156.23 5.616 156.656 5.84C157.094 6.064 157.403 6.41067 157.584 6.88C157.894 6.45333 158.251 6.11733 158.656 5.872C159.062 5.62667 159.568 5.504 160.176 5.504C161.051 5.504 161.728 5.71733 162.208 6.144C162.699 6.57067 162.944 7.28533 162.944 8.288V14H161.12V9.168C161.12 8.83733 161.11 8.53867 161.088 8.272C161.067 7.99467 161.003 7.76 160.896 7.568C160.8 7.36533 160.651 7.21067 160.448 7.104C160.246 6.99733 159.968 6.944 159.616 6.944C158.998 6.944 158.55 7.136 158.272 7.52C157.995 7.904 157.856 8.448 157.856 9.152V14H156.032V8.688C156.032 8.112 155.926 7.68 155.712 7.392C155.51 7.09333 155.131 6.944 154.576 6.944C154.342 6.944 154.112 6.992 153.888 7.088C153.675 7.184 153.483 7.32267 153.312 7.504C153.152 7.68533 153.019 7.90933 152.912 8.176C152.816 8.44267 152.768 8.74667 152.768 9.088V14H150.944V5.728ZM170.546 9.136C170.525 8.848 170.461 8.57067 170.354 8.304C170.258 8.03733 170.12 7.808 169.938 7.616C169.768 7.41333 169.554 7.25333 169.298 7.136C169.053 7.008 168.776 6.944 168.466 6.944C168.146 6.944 167.853 7.00267 167.586 7.12C167.33 7.22667 167.106 7.38133 166.914 7.584C166.733 7.776 166.584 8.00533 166.466 8.272C166.36 8.53867 166.301 8.82667 166.29 9.136H170.546ZM166.29 10.336C166.29 10.656 166.333 10.9653 166.418 11.264C166.514 11.5627 166.653 11.824 166.834 12.048C167.016 12.272 167.245 12.4533 167.522 12.592C167.8 12.72 168.13 12.784 168.514 12.784C169.048 12.784 169.474 12.672 169.794 12.448C170.125 12.2133 170.37 11.8667 170.53 11.408H172.258C172.162 11.856 171.997 12.256 171.762 12.608C171.528 12.96 171.245 13.2587 170.914 13.504C170.584 13.7387 170.21 13.9147 169.794 14.032C169.389 14.16 168.962 14.224 168.514 14.224C167.864 14.224 167.288 14.1173 166.786 13.904C166.285 13.6907 165.858 13.392 165.506 13.008C165.165 12.624 164.904 12.1653 164.722 11.632C164.552 11.0987 164.466 10.512 164.466 9.872C164.466 9.28533 164.557 8.73067 164.738 8.208C164.93 7.67467 165.197 7.21067 165.538 6.816C165.89 6.41067 166.312 6.09067 166.802 5.856C167.293 5.62133 167.848 5.504 168.466 5.504C169.117 5.504 169.698 5.64267 170.21 5.92C170.733 6.18667 171.165 6.544 171.506 6.992C171.848 7.44 172.093 7.95733 172.242 8.544C172.402 9.12 172.445 9.71733 172.37 10.336H166.29ZM173.757 5.728H175.485V6.944L175.517 6.976C175.794 6.51733 176.157 6.16 176.605 5.904C177.053 5.63733 177.549 5.504 178.093 5.504C179 5.504 179.714 5.73867 180.237 6.208C180.76 6.67733 181.021 7.38133 181.021 8.32V14H179.197V8.8C179.176 8.14933 179.037 7.68 178.781 7.392C178.525 7.09333 178.125 6.944 177.581 6.944C177.272 6.944 176.994 7.00267 176.749 7.12C176.504 7.22667 176.296 7.38133 176.125 7.584C175.954 7.776 175.821 8.00533 175.725 8.272C175.629 8.53867 175.581 8.82133 175.581 9.12V14H173.757V5.728ZM182.112 5.728H183.488V3.248H185.312V5.728H186.96V7.088H185.312V11.504C185.312 11.696 185.318 11.8613 185.328 12C185.35 12.1387 185.387 12.256 185.44 12.352C185.504 12.448 185.595 12.5227 185.712 12.576C185.83 12.6187 185.99 12.64 186.192 12.64C186.32 12.64 186.448 12.64 186.576 12.64C186.704 12.6293 186.832 12.608 186.96 12.576V13.984C186.758 14.0053 186.56 14.0267 186.368 14.048C186.176 14.0693 185.979 14.08 185.776 14.08C185.296 14.08 184.907 14.0373 184.608 13.952C184.32 13.856 184.091 13.7227 183.92 13.552C183.76 13.3707 183.648 13.1467 183.584 12.88C183.531 12.6133 183.499 12.3093 183.488 11.968V7.088H182.112V5.728ZM86.752 30H85.024V28.88H84.992C84.7467 29.36 84.3893 29.7067 83.92 29.92C83.4507 30.1227 82.9547 30.224 82.432 30.224C81.7813 30.224 81.2107 30.112 80.72 29.888C80.24 29.6533 79.84 29.3387 79.52 28.944C79.2 28.5493 78.96 28.0853 78.8 27.552C78.64 27.008 78.56 26.4267 78.56 25.808C78.56 25.0613 78.6613 24.416 78.864 23.872C79.0667 23.328 79.3333 22.88 79.664 22.528C80.0053 22.176 80.3893 21.92 80.816 21.76C81.2533 21.5893 81.696 21.504 82.144 21.504C82.4 21.504 82.6613 21.5307 82.928 21.584C83.1947 21.6267 83.4507 21.7013 83.696 21.808C83.9413 21.9147 84.1653 22.0533 84.368 22.224C84.5813 22.384 84.7573 22.576 84.896 22.8H84.928V18.576H86.752V30ZM80.384 25.952C80.384 26.304 80.4267 26.6507 80.512 26.992C80.608 27.3333 80.7467 27.6373 80.928 27.904C81.12 28.1707 81.36 28.384 81.648 28.544C81.936 28.704 82.2773 28.784 82.672 28.784C83.0773 28.784 83.424 28.6987 83.712 28.528C84.0107 28.3573 84.2507 28.1333 84.432 27.856C84.624 27.5787 84.7627 27.2693 84.848 26.928C84.944 26.576 84.992 26.2187 84.992 25.856C84.992 24.9387 84.784 24.224 84.368 23.712C83.9627 23.2 83.408 22.944 82.704 22.944C82.2773 22.944 81.9147 23.0347 81.616 23.216C81.328 23.3867 81.088 23.616 80.896 23.904C80.7147 24.1813 80.5813 24.5013 80.496 24.864C80.4213 25.216 80.384 25.5787 80.384 25.952ZM96.0052 30H94.2133V28.848H94.1813C93.9573 29.264 93.6213 29.6 93.1733 29.856C92.7359 30.1013 92.2879 30.224 91.8293 30.224C90.7413 30.224 89.9519 29.9573 89.4613 29.424C88.9813 28.88 88.7413 28.064 88.7413 26.976V21.728H90.5653V26.8C90.5653 27.5253 90.7039 28.0373 90.9813 28.336C91.2586 28.6347 91.6479 28.784 92.1493 28.784C92.5333 28.784 92.8533 28.7253 93.1093 28.608C93.3653 28.4907 93.5733 28.336 93.7333 28.144C93.8933 27.9413 94.0053 27.7013 94.0693 27.424C94.1439 27.1467 94.1813 26.848 94.1813 26.528V21.728H96.0052V30ZM110.35 22.208C110.265 21.8773 110.147 21.5733 109.998 21.296C109.849 21.0187 109.657 20.7787 109.422 20.576C109.187 20.3733 108.91 20.2187 108.59 20.112C108.281 19.9947 107.918 19.936 107.502 19.936C106.894 19.936 106.366 20.0587 105.918 20.304C105.481 20.5493 105.123 20.88 104.846 21.296C104.569 21.7013 104.361 22.1653 104.222 22.688C104.094 23.2107 104.03 23.744 104.03 24.288C104.03 24.832 104.094 25.3653 104.222 25.888C104.361 26.4107 104.569 26.88 104.846 27.296C105.123 27.7013 105.481 28.0267 105.918 28.272C106.366 28.5173 106.894 28.64 107.502 28.64C107.95 28.64 108.345 28.5653 108.686 28.416C109.027 28.256 109.321 28.0427 109.566 27.776C109.811 27.4987 110.003 27.1787 110.142 26.816C110.281 26.4533 110.371 26.064 110.414 25.648H112.366C112.323 26.3307 112.174 26.9547 111.918 27.52C111.673 28.0853 111.337 28.576 110.91 28.992C110.483 29.3973 109.982 29.712 109.406 29.936C108.83 30.16 108.195 30.272 107.502 30.272C106.649 30.272 105.881 30.1173 105.198 29.808C104.526 29.488 103.955 29.056 103.486 28.512C103.017 27.968 102.654 27.3333 102.398 26.608C102.153 25.8827 102.03 25.1093 102.03 24.288C102.03 23.4773 102.153 22.7093 102.398 21.984C102.654 21.2587 103.017 20.624 103.486 20.08C103.955 19.536 104.526 19.104 105.198 18.784C105.881 18.464 106.649 18.304 107.502 18.304C108.142 18.304 108.745 18.3947 109.31 18.576C109.875 18.7467 110.371 19.0027 110.798 19.344C111.235 19.6747 111.587 20.08 111.854 20.56C112.121 21.04 112.286 21.5893 112.35 22.208H110.35ZM120.857 28.16C120.857 28.384 120.883 28.544 120.937 28.64C121.001 28.736 121.118 28.784 121.289 28.784C121.342 28.784 121.406 28.784 121.481 28.784C121.555 28.784 121.641 28.7733 121.737 28.752V30.016C121.673 30.0373 121.587 30.0587 121.481 30.08C121.385 30.112 121.283 30.1387 121.177 30.16C121.07 30.1813 120.963 30.1973 120.857 30.208C120.75 30.2187 120.659 30.224 120.585 30.224C120.211 30.224 119.902 30.1493 119.657 30C119.411 29.8507 119.251 29.5893 119.177 29.216C118.814 29.568 118.366 29.824 117.833 29.984C117.31 30.144 116.803 30.224 116.313 30.224C115.939 30.224 115.582 30.1707 115.241 30.064C114.899 29.968 114.595 29.824 114.329 29.632C114.073 29.4293 113.865 29.1787 113.705 28.88C113.555 28.5707 113.481 28.2133 113.481 27.808C113.481 27.296 113.571 26.88 113.753 26.56C113.945 26.24 114.19 25.9893 114.489 25.808C114.798 25.6267 115.139 25.4987 115.513 25.424C115.897 25.3387 116.281 25.2747 116.665 25.232C116.995 25.168 117.31 25.1253 117.609 25.104C117.907 25.072 118.169 25.024 118.393 24.96C118.627 24.896 118.809 24.8 118.937 24.672C119.075 24.5333 119.145 24.3307 119.145 24.064C119.145 23.8293 119.086 23.6373 118.969 23.488C118.862 23.3387 118.723 23.2267 118.553 23.152C118.393 23.0667 118.211 23.0133 118.009 22.992C117.806 22.96 117.614 22.944 117.433 22.944C116.921 22.944 116.499 23.0507 116.169 23.264C115.838 23.4773 115.651 23.808 115.609 24.256H113.785C113.817 23.7227 113.945 23.28 114.169 22.928C114.393 22.576 114.675 22.2933 115.017 22.08C115.369 21.8667 115.763 21.7173 116.201 21.632C116.638 21.5467 117.086 21.504 117.545 21.504C117.95 21.504 118.35 21.5467 118.745 21.632C119.139 21.7173 119.491 21.856 119.801 22.048C120.121 22.24 120.377 22.4907 120.569 22.8C120.761 23.0987 120.857 23.4667 120.857 23.904V28.16ZM119.033 25.856C118.755 26.0373 118.414 26.1493 118.009 26.192C117.603 26.224 117.198 26.2773 116.793 26.352C116.601 26.384 116.414 26.432 116.233 26.496C116.051 26.5493 115.891 26.6293 115.753 26.736C115.614 26.832 115.502 26.9653 115.417 27.136C115.342 27.296 115.305 27.4933 115.305 27.728C115.305 27.9307 115.363 28.1013 115.481 28.24C115.598 28.3787 115.737 28.4907 115.897 28.576C116.067 28.6507 116.249 28.704 116.441 28.736C116.643 28.768 116.825 28.784 116.985 28.784C117.187 28.784 117.406 28.7573 117.641 28.704C117.875 28.6507 118.094 28.56 118.297 28.432C118.51 28.304 118.686 28.144 118.825 27.952C118.963 27.7493 119.033 27.504 119.033 27.216V25.856ZM122.819 21.728H124.547V22.944L124.579 22.976C124.857 22.5173 125.219 22.16 125.667 21.904C126.115 21.6373 126.611 21.504 127.155 21.504C128.062 21.504 128.777 21.7387 129.299 22.208C129.822 22.6773 130.083 23.3813 130.083 24.32V30H128.259V24.8C128.238 24.1493 128.099 23.68 127.843 23.392C127.587 23.0933 127.187 22.944 126.643 22.944C126.334 22.944 126.057 23.0027 125.811 23.12C125.566 23.2267 125.358 23.3813 125.187 23.584C125.017 23.776 124.883 24.0053 124.787 24.272C124.691 24.5387 124.643 24.8213 124.643 25.12V30H122.819V21.728ZM138.935 28.16C138.935 28.384 138.962 28.544 139.015 28.64C139.079 28.736 139.196 28.784 139.367 28.784C139.42 28.784 139.484 28.784 139.559 28.784C139.634 28.784 139.719 28.7733 139.815 28.752V30.016C139.751 30.0373 139.666 30.0587 139.559 30.08C139.463 30.112 139.362 30.1387 139.255 30.16C139.148 30.1813 139.042 30.1973 138.935 30.208C138.828 30.2187 138.738 30.224 138.663 30.224C138.29 30.224 137.98 30.1493 137.735 30C137.49 29.8507 137.33 29.5893 137.255 29.216C136.892 29.568 136.444 29.824 135.911 29.984C135.388 30.144 134.882 30.224 134.391 30.224C134.018 30.224 133.66 30.1707 133.319 30.064C132.978 29.968 132.674 29.824 132.407 29.632C132.151 29.4293 131.943 29.1787 131.783 28.88C131.634 28.5707 131.559 28.2133 131.559 27.808C131.559 27.296 131.65 26.88 131.831 26.56C132.023 26.24 132.268 25.9893 132.567 25.808C132.876 25.6267 133.218 25.4987 133.591 25.424C133.975 25.3387 134.359 25.2747 134.743 25.232C135.074 25.168 135.388 25.1253 135.687 25.104C135.986 25.072 136.247 25.024 136.471 24.96C136.706 24.896 136.887 24.8 137.015 24.672C137.154 24.5333 137.223 24.3307 137.223 24.064C137.223 23.8293 137.164 23.6373 137.047 23.488C136.94 23.3387 136.802 23.2267 136.631 23.152C136.471 23.0667 136.29 23.0133 136.087 22.992C135.884 22.96 135.692 22.944 135.511 22.944C134.999 22.944 134.578 23.0507 134.247 23.264C133.916 23.4773 133.73 23.808 133.687 24.256H131.863C131.895 23.7227 132.023 23.28 132.247 22.928C132.471 22.576 132.754 22.2933 133.095 22.08C133.447 21.8667 133.842 21.7173 134.279 21.632C134.716 21.5467 135.164 21.504 135.623 21.504C136.028 21.504 136.428 21.5467 136.823 21.632C137.218 21.7173 137.57 21.856 137.879 22.048C138.199 22.24 138.455 22.4907 138.647 22.8C138.839 23.0987 138.935 23.4667 138.935 23.904V28.16ZM137.111 25.856C136.834 26.0373 136.492 26.1493 136.087 26.192C135.682 26.224 135.276 26.2773 134.871 26.352C134.679 26.384 134.492 26.432 134.311 26.496C134.13 26.5493 133.97 26.6293 133.831 26.736C133.692 26.832 133.58 26.9653 133.495 27.136C133.42 27.296 133.383 27.4933 133.383 27.728C133.383 27.9307 133.442 28.1013 133.559 28.24C133.676 28.3787 133.815 28.4907 133.975 28.576C134.146 28.6507 134.327 28.704 134.519 28.736C134.722 28.768 134.903 28.784 135.063 28.784C135.266 28.784 135.484 28.7573 135.719 28.704C135.954 28.6507 136.172 28.56 136.375 28.432C136.588 28.304 136.764 28.144 136.903 27.952C137.042 27.7493 137.111 27.504 137.111 27.216V25.856ZM148.69 30H146.962V28.88H146.93C146.684 29.36 146.327 29.7067 145.858 29.92C145.388 30.1227 144.892 30.224 144.37 30.224C143.719 30.224 143.148 30.112 142.658 29.888C142.178 29.6533 141.778 29.3387 141.458 28.944C141.138 28.5493 140.898 28.0853 140.738 27.552C140.578 27.008 140.498 26.4267 140.498 25.808C140.498 25.0613 140.599 24.416 140.802 23.872C141.004 23.328 141.271 22.88 141.602 22.528C141.943 22.176 142.327 21.92 142.754 21.76C143.191 21.5893 143.634 21.504 144.082 21.504C144.338 21.504 144.599 21.5307 144.866 21.584C145.132 21.6267 145.388 21.7013 145.634 21.808C145.879 21.9147 146.103 22.0533 146.306 22.224C146.519 22.384 146.695 22.576 146.834 22.8H146.866V18.576H148.69V30ZM142.322 25.952C142.322 26.304 142.364 26.6507 142.45 26.992C142.546 27.3333 142.684 27.6373 142.866 27.904C143.058 28.1707 143.298 28.384 143.586 28.544C143.874 28.704 144.215 28.784 144.61 28.784C145.015 28.784 145.362 28.6987 145.65 28.528C145.948 28.3573 146.188 28.1333 146.37 27.856C146.562 27.5787 146.7 27.2693 146.786 26.928C146.882 26.576 146.93 26.2187 146.93 25.856C146.93 24.9387 146.722 24.224 146.306 23.712C145.9 23.2 145.346 22.944 144.641 22.944C144.215 22.944 143.852 23.0347 143.554 23.216C143.266 23.3867 143.026 23.616 142.834 23.904C142.652 24.1813 142.519 24.5013 142.434 24.864C142.359 25.216 142.322 25.5787 142.322 25.952ZM157.607 28.16C157.607 28.384 157.633 28.544 157.687 28.64C157.751 28.736 157.868 28.784 158.039 28.784C158.092 28.784 158.156 28.784 158.231 28.784C158.305 28.784 158.391 28.7733 158.487 28.752V30.016C158.423 30.0373 158.337 30.0587 158.231 30.08C158.135 30.112 158.033 30.1387 157.927 30.16C157.82 30.1813 157.713 30.1973 157.607 30.208C157.5 30.2187 157.409 30.224 157.335 30.224C156.961 30.224 156.652 30.1493 156.407 30C156.161 29.8507 156.001 29.5893 155.927 29.216C155.564 29.568 155.116 29.824 154.583 29.984C154.06 30.144 153.553 30.224 153.063 30.224C152.689 30.224 152.332 30.1707 151.991 30.064C151.649 29.968 151.345 29.824 151.079 29.632C150.823 29.4293 150.615 29.1787 150.455 28.88C150.305 28.5707 150.231 28.2133 150.231 27.808C150.231 27.296 150.321 26.88 150.503 26.56C150.695 26.24 150.94 25.9893 151.239 25.808C151.548 25.6267 151.889 25.4987 152.263 25.424C152.647 25.3387 153.031 25.2747 153.415 25.232C153.745 25.168 154.06 25.1253 154.359 25.104C154.657 25.072 154.919 25.024 155.143 24.96C155.377 24.896 155.559 24.8 155.687 24.672C155.825 24.5333 155.895 24.3307 155.895 24.064C155.895 23.8293 155.836 23.6373 155.719 23.488C155.612 23.3387 155.473 23.2267 155.303 23.152C155.143 23.0667 154.961 23.0133 154.759 22.992C154.556 22.96 154.364 22.944 154.183 22.944C153.671 22.944 153.249 23.0507 152.919 23.264C152.588 23.4773 152.401 23.808 152.359 24.256H150.535C150.567 23.7227 150.695 23.28 150.919 22.928C151.143 22.576 151.425 22.2933 151.767 22.08C152.119 21.8667 152.513 21.7173 152.951 21.632C153.388 21.5467 153.836 21.504 154.295 21.504C154.7 21.504 155.1 21.5467 155.495 21.632C155.889 21.7173 156.241 21.856 156.551 22.048C156.871 22.24 157.127 22.4907 157.319 22.8C157.511 23.0987 157.607 23.4667 157.607 23.904V28.16ZM155.783 25.856C155.505 26.0373 155.164 26.1493 154.759 26.192C154.353 26.224 153.948 26.2773 153.543 26.352C153.351 26.384 153.164 26.432 152.983 26.496C152.801 26.5493 152.641 26.6293 152.503 26.736C152.364 26.832 152.252 26.9653 152.167 27.136C152.092 27.296 152.055 27.4933 152.055 27.728C152.055 27.9307 152.113 28.1013 152.231 28.24C152.348 28.3787 152.487 28.4907 152.647 28.576C152.817 28.6507 152.999 28.704 153.191 28.736C153.393 28.768 153.575 28.784 153.735 28.784C153.937 28.784 154.156 28.7573 154.391 28.704C154.625 28.6507 154.844 28.56 155.047 28.432C155.26 28.304 155.436 28.144 155.575 27.952C155.713 27.7493 155.783 27.504 155.783 27.216V25.856Z" fill="black"/>
<path d="M223.184 14H221.904L221.6 12.656C221.067 13.264 220.533 13.6853 220 13.92C219.467 14.1547 218.853 14.272 218.16 14.272C217.307 14.272 216.539 14.1173 215.856 13.808C215.184 13.488 214.613 13.056 214.144 12.512C213.675 11.968 213.312 11.3333 213.056 10.608C212.811 9.88267 212.688 9.10933 212.688 8.288C212.688 7.47733 212.811 6.70933 213.056 5.984C213.312 5.25867 213.675 4.624 214.144 4.08C214.613 3.536 215.184 3.104 215.856 2.784C216.539 2.464 217.307 2.304 218.16 2.304C218.779 2.304 219.365 2.38933 219.92 2.56C220.485 2.72 220.987 2.96533 221.424 3.296C221.861 3.616 222.224 4.02133 222.512 4.512C222.8 5.00267 222.981 5.568 223.056 6.208H221.104C221.051 5.83467 220.933 5.50933 220.752 5.232C220.581 4.944 220.363 4.704 220.096 4.512C219.829 4.32 219.531 4.176 219.2 4.08C218.869 3.984 218.523 3.936 218.16 3.936C217.552 3.936 217.024 4.05867 216.576 4.304C216.139 4.54933 215.781 4.88 215.504 5.296C215.227 5.70133 215.019 6.16533 214.88 6.688C214.752 7.21067 214.688 7.744 214.688 8.288C214.688 8.832 214.752 9.36533 214.88 9.888C215.019 10.4107 215.227 10.88 215.504 11.296C215.781 11.7013 216.139 12.0267 216.576 12.272C217.024 12.5173 217.552 12.64 218.16 12.64C218.672 12.6507 219.125 12.5867 219.52 12.448C219.915 12.2987 220.245 12.0907 220.512 11.824C220.789 11.5467 220.997 11.2107 221.136 10.816C221.275 10.4213 221.349 9.984 221.36 9.504H218.32V7.984H223.184V14ZM228.893 14.224C228.231 14.224 227.639 14.1173 227.117 13.904C226.605 13.68 226.167 13.376 225.805 12.992C225.453 12.608 225.181 12.1493 224.989 11.616C224.807 11.0827 224.717 10.496 224.717 9.856C224.717 9.22667 224.807 8.64533 224.989 8.112C225.181 7.57867 225.453 7.12 225.805 6.736C226.167 6.352 226.605 6.05333 227.117 5.84C227.639 5.616 228.231 5.504 228.893 5.504C229.554 5.504 230.141 5.616 230.653 5.84C231.175 6.05333 231.613 6.352 231.965 6.736C232.327 7.12 232.599 7.57867 232.781 8.112C232.973 8.64533 233.069 9.22667 233.069 9.856C233.069 10.496 232.973 11.0827 232.781 11.616C232.599 12.1493 232.327 12.608 231.965 12.992C231.613 13.376 231.175 13.68 230.653 13.904C230.141 14.1173 229.554 14.224 228.893 14.224ZM228.893 12.784C229.298 12.784 229.65 12.6987 229.949 12.528C230.247 12.3573 230.493 12.1333 230.685 11.856C230.877 11.5787 231.015 11.2693 231.101 10.928C231.197 10.576 231.245 10.2187 231.245 9.856C231.245 9.504 231.197 9.152 231.101 8.8C231.015 8.448 230.877 8.13867 230.685 7.872C230.493 7.59467 230.247 7.37067 229.949 7.2C229.65 7.02933 229.298 6.944 228.893 6.944C228.487 6.944 228.135 7.02933 227.837 7.2C227.538 7.37067 227.293 7.59467 227.101 7.872C226.909 8.13867 226.765 8.448 226.669 8.8C226.583 9.152 226.541 9.504 226.541 9.856C226.541 10.2187 226.583 10.576 226.669 10.928C226.765 11.2693 226.909 11.5787 227.101 11.856C227.293 12.1333 227.538 12.3573 227.837 12.528C228.135 12.6987 228.487 12.784 228.893 12.784ZM233.769 5.728H235.753L237.849 12.08H237.881L239.897 5.728H241.785L238.825 14H236.777L233.769 5.728ZM248.562 9.136C248.541 8.848 248.477 8.57067 248.37 8.304C248.274 8.03733 248.135 7.808 247.954 7.616C247.783 7.41333 247.57 7.25333 247.314 7.136C247.069 7.008 246.791 6.944 246.482 6.944C246.162 6.944 245.869 7.00267 245.602 7.12C245.346 7.22667 245.122 7.38133 244.93 7.584C244.749 7.776 244.599 8.00533 244.482 8.272C244.375 8.53867 244.317 8.82667 244.306 9.136H248.562ZM244.306 10.336C244.306 10.656 244.349 10.9653 244.434 11.264C244.53 11.5627 244.669 11.824 244.85 12.048C245.031 12.272 245.261 12.4533 245.538 12.592C245.815 12.72 246.146 12.784 246.53 12.784C247.063 12.784 247.49 12.672 247.81 12.448C248.141 12.2133 248.386 11.8667 248.546 11.408H250.274C250.178 11.856 250.013 12.256 249.778 12.608C249.543 12.96 249.261 13.2587 248.93 13.504C248.599 13.7387 248.226 13.9147 247.81 14.032C247.405 14.16 246.978 14.224 246.53 14.224C245.879 14.224 245.303 14.1173 244.802 13.904C244.301 13.6907 243.874 13.392 243.522 13.008C243.181 12.624 242.919 12.1653 242.738 11.632C242.567 11.0987 242.482 10.512 242.482 9.872C242.482 9.28533 242.573 8.73067 242.754 8.208C242.946 7.67467 243.213 7.21067 243.554 6.816C243.906 6.41067 244.327 6.09067 244.818 5.856C245.309 5.62133 245.863 5.504 246.482 5.504C247.133 5.504 247.714 5.64267 248.226 5.92C248.749 6.18667 249.181 6.544 249.522 6.992C249.863 7.44 250.109 7.95733 250.258 8.544C250.418 9.12 250.461 9.71733 250.386 10.336H244.306ZM251.773 5.728H253.485V7.328H253.517C253.57 7.104 253.671 6.88533 253.821 6.672C253.981 6.45867 254.167 6.26667 254.381 6.096C254.605 5.91467 254.85 5.77067 255.117 5.664C255.383 5.55733 255.655 5.504 255.933 5.504C256.146 5.504 256.29 5.50933 256.365 5.52C256.45 5.53067 256.535 5.54133 256.621 5.552V7.312C256.493 7.29067 256.359 7.27467 256.221 7.264C256.093 7.24267 255.965 7.232 255.837 7.232C255.527 7.232 255.234 7.296 254.957 7.424C254.69 7.54133 254.455 7.72267 254.253 7.968C254.05 8.20267 253.89 8.496 253.773 8.848C253.655 9.2 253.597 9.60533 253.597 10.064V14H251.773V5.728ZM257.679 5.728H259.407V6.944L259.439 6.976C259.716 6.51733 260.079 6.16 260.527 5.904C260.975 5.63733 261.471 5.504 262.015 5.504C262.921 5.504 263.636 5.73867 264.159 6.208C264.681 6.67733 264.943 7.38133 264.943 8.32V14H263.119V8.8C263.097 8.14933 262.959 7.68 262.703 7.392C262.447 7.09333 262.047 6.944 261.503 6.944C261.193 6.944 260.916 7.00267 260.671 7.12C260.425 7.22667 260.217 7.38133 260.047 7.584C259.876 7.776 259.743 8.00533 259.647 8.272C259.551 8.53867 259.503 8.82133 259.503 9.12V14H257.679V5.728ZM266.866 5.728H268.594V6.88H268.642C268.781 6.67733 268.93 6.49067 269.09 6.32C269.25 6.14933 269.426 6.00533 269.618 5.888C269.821 5.77067 270.05 5.68 270.306 5.616C270.562 5.54133 270.856 5.504 271.186 5.504C271.688 5.504 272.152 5.616 272.578 5.84C273.016 6.064 273.325 6.41067 273.506 6.88C273.816 6.45333 274.173 6.11733 274.578 5.872C274.984 5.62667 275.49 5.504 276.098 5.504C276.973 5.504 277.65 5.71733 278.13 6.144C278.621 6.57067 278.866 7.28533 278.866 8.288V14H277.042V9.168C277.042 8.83733 277.032 8.53867 277.01 8.272C276.989 7.99467 276.925 7.76 276.818 7.568C276.722 7.36533 276.573 7.21067 276.37 7.104C276.168 6.99733 275.89 6.944 275.538 6.944C274.92 6.944 274.472 7.136 274.194 7.52C273.917 7.904 273.778 8.448 273.778 9.152V14H271.954V8.688C271.954 8.112 271.848 7.68 271.634 7.392C271.432 7.09333 271.053 6.944 270.498 6.944C270.264 6.944 270.034 6.992 269.81 7.088C269.597 7.184 269.405 7.32267 269.234 7.504C269.074 7.68533 268.941 7.90933 268.834 8.176C268.738 8.44267 268.69 8.74667 268.69 9.088V14H266.866V5.728ZM286.468 9.136C286.447 8.848 286.383 8.57067 286.276 8.304C286.18 8.03733 286.041 7.808 285.86 7.616C285.689 7.41333 285.476 7.25333 285.22 7.136C284.975 7.008 284.697 6.944 284.388 6.944C284.068 6.944 283.775 7.00267 283.508 7.12C283.252 7.22667 283.028 7.38133 282.836 7.584C282.655 7.776 282.505 8.00533 282.388 8.272C282.281 8.53867 282.223 8.82667 282.212 9.136H286.468ZM282.212 10.336C282.212 10.656 282.255 10.9653 282.34 11.264C282.436 11.5627 282.575 11.824 282.756 12.048C282.937 12.272 283.167 12.4533 283.444 12.592C283.721 12.72 284.052 12.784 284.436 12.784C284.969 12.784 285.396 12.672 285.716 12.448C286.047 12.2133 286.292 11.8667 286.452 11.408H288.18C288.084 11.856 287.919 12.256 287.684 12.608C287.449 12.96 287.167 13.2587 286.836 13.504C286.505 13.7387 286.132 13.9147 285.716 14.032C285.311 14.16 284.884 14.224 284.436 14.224C283.785 14.224 283.209 14.1173 282.708 13.904C282.207 13.6907 281.78 13.392 281.428 13.008C281.087 12.624 280.825 12.1653 280.644 11.632C280.473 11.0987 280.388 10.512 280.388 9.872C280.388 9.28533 280.479 8.73067 280.66 8.208C280.852 7.67467 281.119 7.21067 281.46 6.816C281.812 6.41067 282.233 6.09067 282.724 5.856C283.215 5.62133 283.769 5.504 284.388 5.504C285.039 5.504 285.62 5.64267 286.132 5.92C286.655 6.18667 287.087 6.544 287.428 6.992C287.769 7.44 288.015 7.95733 288.164 8.544C288.324 9.12 288.367 9.71733 288.292 10.336H282.212ZM289.679 5.728H291.407V6.944L291.439 6.976C291.716 6.51733 292.079 6.16 292.527 5.904C292.975 5.63733 293.471 5.504 294.015 5.504C294.921 5.504 295.636 5.73867 296.159 6.208C296.681 6.67733 296.943 7.38133 296.943 8.32V14H295.119V8.8C295.097 8.14933 294.959 7.68 294.703 7.392C294.447 7.09333 294.047 6.944 293.503 6.944C293.193 6.944 292.916 7.00267 292.671 7.12C292.425 7.22667 292.217 7.38133 292.047 7.584C291.876 7.776 291.743 8.00533 291.647 8.272C291.551 8.53867 291.503 8.82133 291.503 9.12V14H289.679V5.728ZM298.034 5.728H299.41V3.248H301.234V5.728H302.882V7.088H301.234V11.504C301.234 11.696 301.24 11.8613 301.25 12C301.272 12.1387 301.309 12.256 301.362 12.352C301.426 12.448 301.517 12.5227 301.634 12.576C301.752 12.6187 301.912 12.64 302.114 12.64C302.242 12.64 302.37 12.64 302.498 12.64C302.626 12.6293 302.754 12.608 302.882 12.576V13.984C302.68 14.0053 302.482 14.0267 302.29 14.048C302.098 14.0693 301.901 14.08 301.698 14.08C301.218 14.08 300.829 14.0373 300.53 13.952C300.242 13.856 300.013 13.7227 299.842 13.552C299.682 13.3707 299.57 13.1467 299.506 12.88C299.453 12.6133 299.421 12.3093 299.41 11.968V7.088H298.034V5.728ZM216.752 30.224C216.091 30.224 215.499 30.1173 214.976 29.904C214.464 29.68 214.027 29.376 213.664 28.992C213.312 28.608 213.04 28.1493 212.848 27.616C212.667 27.0827 212.576 26.496 212.576 25.856C212.576 25.2267 212.667 24.6453 212.848 24.112C213.04 23.5787 213.312 23.12 213.664 22.736C214.027 22.352 214.464 22.0533 214.976 21.84C215.499 21.616 216.091 21.504 216.752 21.504C217.413 21.504 218 21.616 218.512 21.84C219.035 22.0533 219.472 22.352 219.824 22.736C220.187 23.12 220.459 23.5787 220.64 24.112C220.832 24.6453 220.928 25.2267 220.928 25.856C220.928 26.496 220.832 27.0827 220.64 27.616C220.459 28.1493 220.187 28.608 219.824 28.992C219.472 29.376 219.035 29.68 218.512 29.904C218 30.1173 217.413 30.224 216.752 30.224ZM216.752 28.784C217.157 28.784 217.509 28.6987 217.808 28.528C218.107 28.3573 218.352 28.1333 218.544 27.856C218.736 27.5787 218.875 27.2693 218.96 26.928C219.056 26.576 219.104 26.2187 219.104 25.856C219.104 25.504 219.056 25.152 218.96 24.8C218.875 24.448 218.736 24.1387 218.544 23.872C218.352 23.5947 218.107 23.3707 217.808 23.2C217.509 23.0293 217.157 22.944 216.752 22.944C216.347 22.944 215.995 23.0293 215.696 23.2C215.397 23.3707 215.152 23.5947 214.96 23.872C214.768 24.1387 214.624 24.448 214.528 24.8C214.443 25.152 214.4 25.504 214.4 25.856C214.4 26.2187 214.443 26.576 214.528 26.928C214.624 27.2693 214.768 27.5787 214.96 27.856C215.152 28.1333 215.397 28.3573 215.696 28.528C215.995 28.6987 216.347 28.784 216.752 28.784ZM221.628 21.728H222.988V21.04C222.988 20.5173 223.052 20.096 223.18 19.776C223.308 19.4453 223.479 19.1947 223.692 19.024C223.906 18.8427 224.146 18.7253 224.412 18.672C224.69 18.608 224.978 18.576 225.276 18.576C225.863 18.576 226.29 18.6133 226.556 18.688V20.112C226.439 20.08 226.311 20.0587 226.172 20.048C226.044 20.0267 225.89 20.016 225.708 20.016C225.463 20.016 225.25 20.0747 225.068 20.192C224.898 20.3093 224.812 20.5387 224.812 20.88V21.728H226.364V23.088H224.812V30H222.988V23.088H221.628V21.728ZM239.912 22.208C239.827 21.8773 239.71 21.5733 239.56 21.296C239.411 21.0187 239.219 20.7787 238.984 20.576C238.75 20.3733 238.472 20.2187 238.152 20.112C237.843 19.9947 237.48 19.936 237.064 19.936C236.456 19.936 235.928 20.0587 235.48 20.304C235.043 20.5493 234.686 20.88 234.408 21.296C234.131 21.7013 233.923 22.1653 233.784 22.688C233.656 23.2107 233.592 23.744 233.592 24.288C233.592 24.832 233.656 25.3653 233.784 25.888C233.923 26.4107 234.131 26.88 234.408 27.296C234.686 27.7013 235.043 28.0267 235.48 28.272C235.928 28.5173 236.456 28.64 237.064 28.64C237.512 28.64 237.907 28.5653 238.248 28.416C238.59 28.256 238.883 28.0427 239.128 27.776C239.374 27.4987 239.566 27.1787 239.704 26.816C239.843 26.4533 239.934 26.064 239.976 25.648H241.928C241.886 26.3307 241.736 26.9547 241.48 27.52C241.235 28.0853 240.899 28.576 240.472 28.992C240.046 29.3973 239.544 29.712 238.968 29.936C238.392 30.16 237.758 30.272 237.064 30.272C236.211 30.272 235.443 30.1173 234.76 29.808C234.088 29.488 233.518 29.056 233.048 28.512C232.579 27.968 232.216 27.3333 231.96 26.608C231.715 25.8827 231.592 25.1093 231.592 24.288C231.592 23.4773 231.715 22.7093 231.96 21.984C232.216 21.2587 232.579 20.624 233.048 20.08C233.518 19.536 234.088 19.104 234.76 18.784C235.443 18.464 236.211 18.304 237.064 18.304C237.704 18.304 238.307 18.3947 238.872 18.576C239.438 18.7467 239.934 19.0027 240.36 19.344C240.798 19.6747 241.15 20.08 241.416 20.56C241.683 21.04 241.848 21.5893 241.912 22.208H239.912ZM250.419 28.16C250.419 28.384 250.446 28.544 250.499 28.64C250.563 28.736 250.681 28.784 250.851 28.784C250.905 28.784 250.969 28.784 251.043 28.784C251.118 28.784 251.203 28.7733 251.299 28.752V30.016C251.235 30.0373 251.15 30.0587 251.043 30.08C250.947 30.112 250.846 30.1387 250.739 30.16C250.633 30.1813 250.526 30.1973 250.419 30.208C250.313 30.2187 250.222 30.224 250.147 30.224C249.774 30.224 249.465 30.1493 249.219 30C248.974 29.8507 248.814 29.5893 248.739 29.216C248.377 29.568 247.929 29.824 247.395 29.984C246.873 30.144 246.366 30.224 245.875 30.224C245.502 30.224 245.145 30.1707 244.803 30.064C244.462 29.968 244.158 29.824 243.891 29.632C243.635 29.4293 243.427 29.1787 243.267 28.88C243.118 28.5707 243.043 28.2133 243.043 27.808C243.043 27.296 243.134 26.88 243.315 26.56C243.507 26.24 243.753 25.9893 244.051 25.808C244.361 25.6267 244.702 25.4987 245.075 25.424C245.459 25.3387 245.843 25.2747 246.227 25.232C246.558 25.168 246.873 25.1253 247.171 25.104C247.47 25.072 247.731 25.024 247.955 24.96C248.19 24.896 248.371 24.8 248.499 24.672C248.638 24.5333 248.707 24.3307 248.707 24.064C248.707 23.8293 248.649 23.6373 248.531 23.488C248.425 23.3387 248.286 23.2267 248.115 23.152C247.955 23.0667 247.774 23.0133 247.571 22.992C247.369 22.96 247.177 22.944 246.995 22.944C246.483 22.944 246.062 23.0507 245.731 23.264C245.401 23.4773 245.214 23.808 245.171 24.256H243.347C243.379 23.7227 243.507 23.28 243.731 22.928C243.955 22.576 244.238 22.2933 244.579 22.08C244.931 21.8667 245.326 21.7173 245.763 21.632C246.201 21.5467 246.649 21.504 247.107 21.504C247.513 21.504 247.913 21.5467 248.307 21.632C248.702 21.7173 249.054 21.856 249.363 22.048C249.683 22.24 249.939 22.4907 250.131 22.8C250.323 23.0987 250.419 23.4667 250.419 23.904V28.16ZM248.595 25.856C248.318 26.0373 247.977 26.1493 247.571 26.192C247.166 26.224 246.761 26.2773 246.355 26.352C246.163 26.384 245.977 26.432 245.795 26.496C245.614 26.5493 245.454 26.6293 245.315 26.736C245.177 26.832 245.065 26.9653 244.979 27.136C244.905 27.296 244.867 27.4933 244.867 27.728C244.867 27.9307 244.926 28.1013 245.043 28.24C245.161 28.3787 245.299 28.4907 245.459 28.576C245.63 28.6507 245.811 28.704 246.003 28.736C246.206 28.768 246.387 28.784 246.547 28.784C246.75 28.784 246.969 28.7573 247.203 28.704C247.438 28.6507 247.657 28.56 247.859 28.432C248.073 28.304 248.249 28.144 248.387 27.952C248.526 27.7493 248.595 27.504 248.595 27.216V25.856ZM252.382 21.728H254.11V22.944L254.142 22.976C254.419 22.5173 254.782 22.16 255.23 21.904C255.678 21.6373 256.174 21.504 256.718 21.504C257.625 21.504 258.339 21.7387 258.862 22.208C259.385 22.6773 259.646 23.3813 259.646 24.32V30H257.822V24.8C257.801 24.1493 257.662 23.68 257.406 23.392C257.15 23.0933 256.75 22.944 256.206 22.944C255.897 22.944 255.619 23.0027 255.374 23.12C255.129 23.2267 254.921 23.3813 254.75 23.584C254.579 23.776 254.446 24.0053 254.35 24.272C254.254 24.5387 254.206 24.8213 254.206 25.12V30H252.382V21.728ZM268.497 28.16C268.497 28.384 268.524 28.544 268.577 28.64C268.641 28.736 268.759 28.784 268.929 28.784C268.983 28.784 269.047 28.784 269.121 28.784C269.196 28.784 269.281 28.7733 269.377 28.752V30.016C269.313 30.0373 269.228 30.0587 269.121 30.08C269.025 30.112 268.924 30.1387 268.817 30.16C268.711 30.1813 268.604 30.1973 268.497 30.208C268.391 30.2187 268.3 30.224 268.225 30.224C267.852 30.224 267.543 30.1493 267.297 30C267.052 29.8507 266.892 29.5893 266.817 29.216C266.455 29.568 266.007 29.824 265.473 29.984C264.951 30.144 264.444 30.224 263.953 30.224C263.58 30.224 263.223 30.1707 262.881 30.064C262.54 29.968 262.236 29.824 261.969 29.632C261.713 29.4293 261.505 29.1787 261.345 28.88C261.196 28.5707 261.121 28.2133 261.121 27.808C261.121 27.296 261.212 26.88 261.393 26.56C261.585 26.24 261.831 25.9893 262.129 25.808C262.439 25.6267 262.78 25.4987 263.153 25.424C263.537 25.3387 263.921 25.2747 264.305 25.232C264.636 25.168 264.951 25.1253 265.249 25.104C265.548 25.072 265.809 25.024 266.033 24.96C266.268 24.896 266.449 24.8 266.577 24.672C266.716 24.5333 266.785 24.3307 266.785 24.064C266.785 23.8293 266.727 23.6373 266.609 23.488C266.503 23.3387 266.364 23.2267 266.193 23.152C266.033 23.0667 265.852 23.0133 265.649 22.992C265.447 22.96 265.255 22.944 265.073 22.944C264.561 22.944 264.14 23.0507 263.809 23.264C263.479 23.4773 263.292 23.808 263.249 24.256H261.425C261.457 23.7227 261.585 23.28 261.809 22.928C262.033 22.576 262.316 22.2933 262.657 22.08C263.009 21.8667 263.404 21.7173 263.841 21.632C264.279 21.5467 264.727 21.504 265.185 21.504C265.591 21.504 265.991 21.5467 266.385 21.632C266.78 21.7173 267.132 21.856 267.441 22.048C267.761 22.24 268.017 22.4907 268.209 22.8C268.401 23.0987 268.497 23.4667 268.497 23.904V28.16ZM266.673 25.856C266.396 26.0373 266.055 26.1493 265.649 26.192C265.244 26.224 264.839 26.2773 264.433 26.352C264.241 26.384 264.055 26.432 263.873 26.496C263.692 26.5493 263.532 26.6293 263.393 26.736C263.255 26.832 263.143 26.9653 263.057 27.136C262.983 27.296 262.945 27.4933 262.945 27.728C262.945 27.9307 263.004 28.1013 263.121 28.24C263.239 28.3787 263.377 28.4907 263.537 28.576C263.708 28.6507 263.889 28.704 264.081 28.736C264.284 28.768 264.465 28.784 264.625 28.784C264.828 28.784 265.047 28.7573 265.281 28.704C265.516 28.6507 265.735 28.56 265.937 28.432C266.151 28.304 266.327 28.144 266.465 27.952C266.604 27.7493 266.673 27.504 266.673 27.216V25.856ZM278.252 30H276.524V28.88H276.492C276.247 29.36 275.889 29.7067 275.42 29.92C274.951 30.1227 274.455 30.224 273.932 30.224C273.281 30.224 272.711 30.112 272.22 29.888C271.74 29.6533 271.34 29.3387 271.02 28.944C270.7 28.5493 270.46 28.0853 270.3 27.552C270.14 27.008 270.06 26.4267 270.06 25.808C270.06 25.0613 270.161 24.416 270.364 23.872C270.567 23.328 270.833 22.88 271.164 22.528C271.505 22.176 271.889 21.92 272.316 21.76C272.753 21.5893 273.196 21.504 273.644 21.504C273.9 21.504 274.161 21.5307 274.428 21.584C274.695 21.6267 274.951 21.7013 275.196 21.808C275.441 21.9147 275.665 22.0533 275.868 22.224C276.081 22.384 276.257 22.576 276.396 22.8H276.428V18.576H278.252V30ZM271.884 25.952C271.884 26.304 271.927 26.6507 272.012 26.992C272.108 27.3333 272.247 27.6373 272.428 27.904C272.62 28.1707 272.86 28.384 273.148 28.544C273.436 28.704 273.777 28.784 274.172 28.784C274.577 28.784 274.924 28.6987 275.212 28.528C275.511 28.3573 275.751 28.1333 275.932 27.856C276.124 27.5787 276.263 27.2693 276.348 26.928C276.444 26.576 276.492 26.2187 276.492 25.856C276.492 24.9387 276.284 24.224 275.868 23.712C275.463 23.2 274.908 22.944 274.204 22.944C273.777 22.944 273.415 23.0347 273.116 23.216C272.828 23.3867 272.588 23.616 272.396 23.904C272.215 24.1813 272.081 24.5013 271.996 24.864C271.921 25.216 271.884 25.5787 271.884 25.952ZM287.169 28.16C287.169 28.384 287.196 28.544 287.249 28.64C287.313 28.736 287.431 28.784 287.601 28.784C287.655 28.784 287.719 28.784 287.793 28.784C287.868 28.784 287.953 28.7733 288.049 28.752V30.016C287.985 30.0373 287.9 30.0587 287.793 30.08C287.697 30.112 287.596 30.1387 287.489 30.16C287.383 30.1813 287.276 30.1973 287.169 30.208C287.063 30.2187 286.972 30.224 286.897 30.224C286.524 30.224 286.215 30.1493 285.969 30C285.724 29.8507 285.564 29.5893 285.489 29.216C285.127 29.568 284.679 29.824 284.145 29.984C283.623 30.144 283.116 30.224 282.625 30.224C282.252 30.224 281.895 30.1707 281.553 30.064C281.212 29.968 280.908 29.824 280.641 29.632C280.385 29.4293 280.177 29.1787 280.017 28.88C279.868 28.5707 279.793 28.2133 279.793 27.808C279.793 27.296 279.884 26.88 280.065 26.56C280.257 26.24 280.503 25.9893 280.801 25.808C281.111 25.6267 281.452 25.4987 281.825 25.424C282.209 25.3387 282.593 25.2747 282.977 25.232C283.308 25.168 283.623 25.1253 283.921 25.104C284.22 25.072 284.481 25.024 284.705 24.96C284.94 24.896 285.121 24.8 285.249 24.672C285.388 24.5333 285.457 24.3307 285.457 24.064C285.457 23.8293 285.399 23.6373 285.281 23.488C285.175 23.3387 285.036 23.2267 284.865 23.152C284.705 23.0667 284.524 23.0133 284.321 22.992C284.119 22.96 283.927 22.944 283.745 22.944C283.233 22.944 282.812 23.0507 282.481 23.264C282.151 23.4773 281.964 23.808 281.921 24.256H280.097C280.129 23.7227 280.257 23.28 280.481 22.928C280.705 22.576 280.988 22.2933 281.329 22.08C281.681 21.8667 282.076 21.7173 282.513 21.632C282.951 21.5467 283.399 21.504 283.857 21.504C284.263 21.504 284.663 21.5467 285.057 21.632C285.452 21.7173 285.804 21.856 286.113 22.048C286.433 22.24 286.689 22.4907 286.881 22.8C287.073 23.0987 287.169 23.4667 287.169 23.904V28.16ZM285.345 25.856C285.068 26.0373 284.727 26.1493 284.321 26.192C283.916 26.224 283.511 26.2773 283.105 26.352C282.913 26.384 282.727 26.432 282.545 26.496C282.364 26.5493 282.204 26.6293 282.065 26.736C281.927 26.832 281.815 26.9653 281.729 27.136C281.655 27.296 281.617 27.4933 281.617 27.728C281.617 27.9307 281.676 28.1013 281.793 28.24C281.911 28.3787 282.049 28.4907 282.209 28.576C282.38 28.6507 282.561 28.704 282.753 28.736C282.956 28.768 283.137 28.784 283.297 28.784C283.5 28.784 283.719 28.7573 283.953 28.704C284.188 28.6507 284.407 28.56 284.609 28.432C284.823 28.304 284.999 28.144 285.137 27.952C285.276 27.7493 285.345 27.504 285.345 27.216V25.856Z" fill="black"/>
<defs>
<clipPath id="clip0_141_1425">
<rect width="54" height="27" fill="white" transform="translate(0 3)"/>
</clipPath>
</defs>
</svg>
