<svg width="304" height="32" viewBox="0 0 304 32" fill="none" xmlns="http://www.w3.org/2000/svg">
<g clip-path="url(#clip0_141_1425)">
<rect width="54" height="27" transform="translate(0 3)" fill="white"/>
<rect y="3" width="13.5" height="27" fill="#EB2D37"/>
<path d="M27.0205 5.53125L25.2528 9.13909C25.089 9.45207 24.8057 9.40736 24.5396 9.24227L22.8606 8.26894L23.9458 13.6412C24.1232 14.329 23.5567 14.642 23.1575 14.1639L20.8984 11.6188L20.2602 12.9361C20.0964 13.28 19.919 13.4314 19.2808 13.28L16.9944 12.7882L17.8851 15.6944C18.0182 16.1312 18.0045 16.3376 17.752 16.5336L16.875 17.0736L21.615 20.9841C22.0177 21.328 21.9699 21.672 21.7925 22.181L21.2738 23.512L25.2971 22.7347C26.1742 22.5524 26.5461 22.5387 26.5461 23.0305L26.3687 27.4689H27.6723L27.4948 23.0167C27.5085 22.5834 27.8804 22.5834 28.4162 22.7175L32.7535 23.5086L32.3236 22.1775C32.1461 21.6238 31.9823 21.4725 32.4566 20.9807L37.125 17.0151L36.3231 16.6127C35.9067 16.4304 36.0842 16.1175 36.1729 15.7426V15.6807L36.9305 12.8088L34.6748 13.2869L34.6644 13.2888C34.2805 13.3601 33.9906 13.414 33.7978 13.0152L33.2176 11.6842L31.0336 14.0367C30.4364 14.697 29.887 14.4116 30.0952 13.4382L31.0916 8.48218L29.5594 9.24571C29.2045 9.42456 29.0236 9.45551 28.8018 9.08062L27.0205 5.53125Z" fill="#EB2D37"/>
<rect x="40.5" y="3" width="13.5" height="27" fill="#EB2D37"/>
</g>
<path d="M89.184 14H87.904L87.6 12.656C87.0667 13.264 86.5333 13.6853 86 13.92C85.4667 14.1547 84.8533 14.272 84.16 14.272C83.3067 14.272 82.5387 14.1173 81.856 13.808C81.184 13.488 80.6133 13.056 80.144 12.512C79.6747 11.968 79.312 11.3333 79.056 10.608C78.8107 9.88267 78.688 9.10933 78.688 8.288C78.688 7.47733 78.8107 6.70933 79.056 5.984C79.312 5.25867 79.6747 4.624 80.144 4.08C80.6133 3.536 81.184 3.104 81.856 2.784C82.5387 2.464 83.3067 2.304 84.16 2.304C84.7787 2.304 85.3653 2.38933 85.92 2.56C86.4853 2.72 86.9867 2.96533 87.424 3.296C87.8613 3.616 88.224 4.02133 88.512 4.512C88.8 5.00267 88.9813 5.568 89.056 6.208H87.104C87.0507 5.83467 86.9333 5.50933 86.752 5.232C86.5813 4.944 86.3627 4.704 86.096 4.512C85.8293 4.32 85.5307 4.176 85.2 4.08C84.8693 3.984 84.5227 3.936 84.16 3.936C83.552 3.936 83.024 4.05867 82.576 4.304C82.1387 4.54933 81.7813 4.88 81.504 5.296C81.2267 5.70133 81.0187 6.16533 80.88 6.688C80.752 7.21067 80.688 7.744 80.688 8.288C80.688 8.832 80.752 9.36533 80.88 9.888C81.0187 10.4107 81.2267 10.88 81.504 11.296C81.7813 11.7013 82.1387 12.0267 82.576 12.272C83.024 12.5173 83.552 12.64 84.16 12.64C84.672 12.6507 85.1253 12.5867 85.52 12.448C85.9147 12.2987 86.2453 12.0907 86.512 11.824C86.7893 11.5467 86.9973 11.2107 87.136 10.816C87.2747 10.4213 87.3493 9.984 87.36 9.504H84.32V7.984H89.184V14ZM94.8926 14.224C94.2313 14.224 93.6393 14.1173 93.1166 13.904C92.6046 13.68 92.1673 13.376 91.8046 12.992C91.4526 12.608 91.1806 12.1493 90.9886 11.616C90.8073 11.0827 90.7166 10.496 90.7166 9.856C90.7166 9.22667 90.8073 8.64533 90.9886 8.112C91.1806 7.57867 91.4526 7.12 91.8046 6.736C92.1673 6.352 92.6046 6.05333 93.1166 5.84C93.6393 5.616 94.2313 5.504 94.8926 5.504C95.554 5.504 96.1406 5.616 96.6526 5.84C97.1753 6.05333 97.6126 6.352 97.9646 6.736C98.3273 7.12 98.5993 7.57867 98.7806 8.112C98.9726 8.64533 99.0686 9.22667 99.0686 9.856C99.0686 10.496 98.9726 11.0827 98.7806 11.616C98.5993 12.1493 98.3273 12.608 97.9646 12.992C97.6126 13.376 97.1753 13.68 96.6526 13.904C96.1406 14.1173 95.554 14.224 94.8926 14.224ZM94.8926 12.784C95.298 12.784 95.65 12.6987 95.9486 12.528C96.2473 12.3573 96.4926 12.1333 96.6846 11.856C96.8766 11.5787 97.0153 11.2693 97.1006 10.928C97.1966 10.576 97.2446 10.2187 97.2446 9.856C97.2446 9.504 97.1966 9.152 97.1006 8.8C97.0153 8.448 96.8766 8.13867 96.6846 7.872C96.4926 7.59467 96.2473 7.37067 95.9486 7.2C95.65 7.02933 95.298 6.944 94.8926 6.944C94.4873 6.944 94.1353 7.02933 93.8366 7.2C93.538 7.37067 93.2926 7.59467 93.1006 7.872C92.9086 8.13867 92.7646 8.448 92.6686 8.8C92.5833 9.152 92.5406 9.504 92.5406 9.856C92.5406 10.2187 92.5833 10.576 92.6686 10.928C92.7646 11.2693 92.9086 11.5787 93.1006 11.856C93.2926 12.1333 93.538 12.3573 93.8366 12.528C94.1353 12.6987 94.4873 12.784 94.8926 12.784ZM99.769 5.728H101.753L103.849 12.08H103.881L105.897 5.728H107.785L104.825 14H102.777L99.769 5.728ZM114.562 9.136C114.541 8.848 114.477 8.57067 114.37 8.304C114.274 8.03733 114.135 7.808 113.954 7.616C113.783 7.41333 113.57 7.25333 113.314 7.136C113.069 7.008 112.791 6.944 112.482 6.944C112.162 6.944 111.869 7.00267 111.602 7.12C111.346 7.22667 111.122 7.38133 110.93 7.584C110.749 7.776 110.599 8.00533 110.482 8.272C110.375 8.53867 110.317 8.82667 110.306 9.136H114.562ZM110.306 10.336C110.306 10.656 110.349 10.9653 110.434 11.264C110.53 11.5627 110.669 11.824 110.85 12.048C111.031 12.272 111.261 12.4533 111.538 12.592C111.815 12.72 112.146 12.784 112.53 12.784C113.063 12.784 113.49 12.672 113.81 12.448C114.141 12.2133 114.386 11.8667 114.546 11.408H116.274C116.178 11.856 116.013 12.256 115.778 12.608C115.543 12.96 115.261 13.2587 114.93 13.504C114.599 13.7387 114.226 13.9147 113.81 14.032C113.405 14.16 112.978 14.224 112.53 14.224C111.879 14.224 111.303 14.1173 110.802 13.904C110.301 13.6907 109.874 13.392 109.522 13.008C109.181 12.624 108.919 12.1653 108.738 11.632C108.567 11.0987 108.482 10.512 108.482 9.872C108.482 9.28533 108.573 8.73067 108.754 8.208C108.946 7.67467 109.213 7.21067 109.554 6.816C109.906 6.41067 110.327 6.09067 110.818 5.856C111.309 5.62133 111.863 5.504 112.482 5.504C113.133 5.504 113.714 5.64267 114.226 5.92C114.749 6.18667 115.181 6.544 115.522 6.992C115.863 7.44 116.109 7.95733 116.258 8.544C116.418 9.12 116.461 9.71733 116.386 10.336H110.306ZM117.773 5.728H119.485V7.328H119.517C119.57 7.104 119.671 6.88533 119.821 6.672C119.981 6.45867 120.167 6.26667 120.381 6.096C120.605 5.91467 120.85 5.77067 121.117 5.664C121.383 5.55733 121.655 5.504 121.933 5.504C122.146 5.504 122.29 5.50933 122.365 5.52C122.45 5.53067 122.535 5.54133 122.621 5.552V7.312C122.493 7.29067 122.359 7.27467 122.221 7.264C122.093 7.24267 121.965 7.232 121.837 7.232C121.527 7.232 121.234 7.296 120.957 7.424C120.69 7.54133 120.455 7.72267 120.253 7.968C120.05 8.20267 119.89 8.496 119.773 8.848C119.655 9.2 119.597 9.60533 119.597 10.064V14H117.773V5.728ZM123.679 5.728H125.407V6.944L125.439 6.976C125.716 6.51733 126.079 6.16 126.527 5.904C126.975 5.63733 127.471 5.504 128.015 5.504C128.921 5.504 129.636 5.73867 130.159 6.208C130.681 6.67733 130.943 7.38133 130.943 8.32V14H129.119V8.8C129.097 8.14933 128.959 7.68 128.703 7.392C128.447 7.09333 128.047 6.944 127.503 6.944C127.193 6.944 126.916 7.00267 126.671 7.12C126.425 7.22667 126.217 7.38133 126.047 7.584C125.876 7.776 125.743 8.00533 125.647 8.272C125.551 8.53867 125.503 8.82133 125.503 9.12V14H123.679V5.728ZM132.866 5.728H134.594V6.88H134.642C134.781 6.67733 134.93 6.49067 135.09 6.32C135.25 6.14933 135.426 6.00533 135.618 5.888C135.821 5.77067 136.05 5.68 136.306 5.616C136.562 5.54133 136.856 5.504 137.186 5.504C137.688 5.504 138.152 5.616 138.578 5.84C139.016 6.064 139.325 6.41067 139.506 6.88C139.816 6.45333 140.173 6.11733 140.578 5.872C140.984 5.62667 141.49 5.504 142.098 5.504C142.973 5.504 143.65 5.71733 144.13 6.144C144.621 6.57067 144.866 7.28533 144.866 8.288V14H143.042V9.168C143.042 8.83733 143.032 8.53867 143.01 8.272C142.989 7.99467 142.925 7.76 142.818 7.568C142.722 7.36533 142.573 7.21067 142.37 7.104C142.168 6.99733 141.89 6.944 141.538 6.944C140.92 6.944 140.472 7.136 140.194 7.52C139.917 7.904 139.778 8.448 139.778 9.152V14H137.954V8.688C137.954 8.112 137.848 7.68 137.634 7.392C137.432 7.09333 137.053 6.944 136.498 6.944C136.264 6.944 136.034 6.992 135.81 7.088C135.597 7.184 135.405 7.32267 135.234 7.504C135.074 7.68533 134.941 7.90933 134.834 8.176C134.738 8.44267 134.69 8.74667 134.69 9.088V14H132.866V5.728ZM152.468 9.136C152.447 8.848 152.383 8.57067 152.276 8.304C152.18 8.03733 152.041 7.808 151.86 7.616C151.689 7.41333 151.476 7.25333 151.22 7.136C150.975 7.008 150.697 6.944 150.388 6.944C150.068 6.944 149.775 7.00267 149.508 7.12C149.252 7.22667 149.028 7.38133 148.836 7.584C148.655 7.776 148.505 8.00533 148.388 8.272C148.281 8.53867 148.223 8.82667 148.212 9.136H152.468ZM148.212 10.336C148.212 10.656 148.255 10.9653 148.34 11.264C148.436 11.5627 148.575 11.824 148.756 12.048C148.937 12.272 149.167 12.4533 149.444 12.592C149.721 12.72 150.052 12.784 150.436 12.784C150.969 12.784 151.396 12.672 151.716 12.448C152.047 12.2133 152.292 11.8667 152.452 11.408H154.18C154.084 11.856 153.919 12.256 153.684 12.608C153.449 12.96 153.167 13.2587 152.836 13.504C152.505 13.7387 152.132 13.9147 151.716 14.032C151.311 14.16 150.884 14.224 150.436 14.224C149.785 14.224 149.209 14.1173 148.708 13.904C148.207 13.6907 147.78 13.392 147.428 13.008C147.087 12.624 146.825 12.1653 146.644 11.632C146.473 11.0987 146.388 10.512 146.388 9.872C146.388 9.28533 146.479 8.73067 146.66 8.208C146.852 7.67467 147.119 7.21067 147.46 6.816C147.812 6.41067 148.233 6.09067 148.724 5.856C149.215 5.62133 149.769 5.504 150.388 5.504C151.039 5.504 151.62 5.64267 152.132 5.92C152.655 6.18667 153.087 6.544 153.428 6.992C153.769 7.44 154.015 7.95733 154.164 8.544C154.324 9.12 154.367 9.71733 154.292 10.336H148.212ZM155.679 5.728H157.407V6.944L157.439 6.976C157.716 6.51733 158.079 6.16 158.527 5.904C158.975 5.63733 159.471 5.504 160.015 5.504C160.921 5.504 161.636 5.73867 162.159 6.208C162.681 6.67733 162.943 7.38133 162.943 8.32V14H161.119V8.8C161.097 8.14933 160.959 7.68 160.703 7.392C160.447 7.09333 160.047 6.944 159.503 6.944C159.193 6.944 158.916 7.00267 158.671 7.12C158.425 7.22667 158.217 7.38133 158.047 7.584C157.876 7.776 157.743 8.00533 157.647 8.272C157.551 8.53867 157.503 8.82133 157.503 9.12V14H155.679V5.728ZM164.034 5.728H165.41V3.248H167.234V5.728H168.882V7.088H167.234V11.504C167.234 11.696 167.24 11.8613 167.25 12C167.272 12.1387 167.309 12.256 167.362 12.352C167.426 12.448 167.517 12.5227 167.634 12.576C167.752 12.6187 167.912 12.64 168.114 12.64C168.242 12.64 168.37 12.64 168.498 12.64C168.626 12.6293 168.754 12.608 168.882 12.576V13.984C168.68 14.0053 168.482 14.0267 168.29 14.048C168.098 14.0693 167.901 14.08 167.698 14.08C167.218 14.08 166.829 14.0373 166.53 13.952C166.242 13.856 166.013 13.7227 165.842 13.552C165.682 13.3707 165.57 13.1467 165.506 12.88C165.453 12.6133 165.421 12.3093 165.41 11.968V7.088H164.034V5.728ZM82.752 30.224C82.0907 30.224 81.4987 30.1173 80.976 29.904C80.464 29.68 80.0267 29.376 79.664 28.992C79.312 28.608 79.04 28.1493 78.848 27.616C78.6667 27.0827 78.576 26.496 78.576 25.856C78.576 25.2267 78.6667 24.6453 78.848 24.112C79.04 23.5787 79.312 23.12 79.664 22.736C80.0267 22.352 80.464 22.0533 80.976 21.84C81.4987 21.616 82.0907 21.504 82.752 21.504C83.4133 21.504 84 21.616 84.512 21.84C85.0347 22.0533 85.472 22.352 85.824 22.736C86.1867 23.12 86.4587 23.5787 86.64 24.112C86.832 24.6453 86.928 25.2267 86.928 25.856C86.928 26.496 86.832 27.0827 86.64 27.616C86.4587 28.1493 86.1867 28.608 85.824 28.992C85.472 29.376 85.0347 29.68 84.512 29.904C84 30.1173 83.4133 30.224 82.752 30.224ZM82.752 28.784C83.1573 28.784 83.5093 28.6987 83.808 28.528C84.1067 28.3573 84.352 28.1333 84.544 27.856C84.736 27.5787 84.8747 27.2693 84.96 26.928C85.056 26.576 85.104 26.2187 85.104 25.856C85.104 25.504 85.056 25.152 84.96 24.8C84.8747 24.448 84.736 24.1387 84.544 23.872C84.352 23.5947 84.1067 23.3707 83.808 23.2C83.5093 23.0293 83.1573 22.944 82.752 22.944C82.3467 22.944 81.9947 23.0293 81.696 23.2C81.3973 23.3707 81.152 23.5947 80.96 23.872C80.768 24.1387 80.624 24.448 80.528 24.8C80.4427 25.152 80.4 25.504 80.4 25.856C80.4 26.2187 80.4427 26.576 80.528 26.928C80.624 27.2693 80.768 27.5787 80.96 27.856C81.152 28.1333 81.3973 28.3573 81.696 28.528C81.9947 28.6987 82.3467 28.784 82.752 28.784ZM87.6284 21.728H88.9884V21.04C88.9884 20.5173 89.0524 20.096 89.1804 19.776C89.3084 19.4453 89.479 19.1947 89.6924 19.024C89.9057 18.8427 90.1457 18.7253 90.4124 18.672C90.6897 18.608 90.9777 18.576 91.2764 18.576C91.863 18.576 92.2897 18.6133 92.5564 18.688V20.112C92.439 20.08 92.311 20.0587 92.1724 20.048C92.0444 20.0267 91.8897 20.016 91.7084 20.016C91.463 20.016 91.2497 20.0747 91.0684 20.192C90.8977 20.3093 90.8124 20.5387 90.8124 20.88V21.728H92.3644V23.088H90.8124V30H88.9884V23.088H87.6284V21.728ZM105.912 22.208C105.827 21.8773 105.71 21.5733 105.56 21.296C105.411 21.0187 105.219 20.7787 104.984 20.576C104.75 20.3733 104.472 20.2187 104.152 20.112C103.843 19.9947 103.48 19.936 103.064 19.936C102.456 19.936 101.928 20.0587 101.48 20.304C101.043 20.5493 100.686 20.88 100.408 21.296C100.131 21.7013 99.923 22.1653 99.7844 22.688C99.6564 23.2107 99.5924 23.744 99.5924 24.288C99.5924 24.832 99.6564 25.3653 99.7844 25.888C99.923 26.4107 100.131 26.88 100.408 27.296C100.686 27.7013 101.043 28.0267 101.48 28.272C101.928 28.5173 102.456 28.64 103.064 28.64C103.512 28.64 103.907 28.5653 104.248 28.416C104.59 28.256 104.883 28.0427 105.128 27.776C105.374 27.4987 105.566 27.1787 105.704 26.816C105.843 26.4533 105.934 26.064 105.976 25.648H107.928C107.886 26.3307 107.736 26.9547 107.48 27.52C107.235 28.0853 106.899 28.576 106.472 28.992C106.046 29.3973 105.544 29.712 104.968 29.936C104.392 30.16 103.758 30.272 103.064 30.272C102.211 30.272 101.443 30.1173 100.76 29.808C100.088 29.488 99.5177 29.056 99.0484 28.512C98.579 27.968 98.2164 27.3333 97.9604 26.608C97.715 25.8827 97.5924 25.1093 97.5924 24.288C97.5924 23.4773 97.715 22.7093 97.9604 21.984C98.2164 21.2587 98.579 20.624 99.0484 20.08C99.5177 19.536 100.088 19.104 100.76 18.784C101.443 18.464 102.211 18.304 103.064 18.304C103.704 18.304 104.307 18.3947 104.872 18.576C105.438 18.7467 105.934 19.0027 106.36 19.344C106.798 19.6747 107.15 20.08 107.416 20.56C107.683 21.04 107.848 21.5893 107.912 22.208H105.912ZM116.419 28.16C116.419 28.384 116.446 28.544 116.499 28.64C116.563 28.736 116.681 28.784 116.851 28.784C116.905 28.784 116.969 28.784 117.043 28.784C117.118 28.784 117.203 28.7733 117.299 28.752V30.016C117.235 30.0373 117.15 30.0587 117.043 30.08C116.947 30.112 116.846 30.1387 116.739 30.16C116.633 30.1813 116.526 30.1973 116.419 30.208C116.313 30.2187 116.222 30.224 116.147 30.224C115.774 30.224 115.465 30.1493 115.219 30C114.974 29.8507 114.814 29.5893 114.739 29.216C114.377 29.568 113.929 29.824 113.395 29.984C112.873 30.144 112.366 30.224 111.875 30.224C111.502 30.224 111.145 30.1707 110.803 30.064C110.462 29.968 110.158 29.824 109.891 29.632C109.635 29.4293 109.427 29.1787 109.267 28.88C109.118 28.5707 109.043 28.2133 109.043 27.808C109.043 27.296 109.134 26.88 109.315 26.56C109.507 26.24 109.753 25.9893 110.051 25.808C110.361 25.6267 110.702 25.4987 111.075 25.424C111.459 25.3387 111.843 25.2747 112.227 25.232C112.558 25.168 112.873 25.1253 113.171 25.104C113.47 25.072 113.731 25.024 113.955 24.96C114.19 24.896 114.371 24.8 114.499 24.672C114.638 24.5333 114.707 24.3307 114.707 24.064C114.707 23.8293 114.649 23.6373 114.531 23.488C114.425 23.3387 114.286 23.2267 114.115 23.152C113.955 23.0667 113.774 23.0133 113.571 22.992C113.369 22.96 113.177 22.944 112.995 22.944C112.483 22.944 112.062 23.0507 111.731 23.264C111.401 23.4773 111.214 23.808 111.171 24.256H109.347C109.379 23.7227 109.507 23.28 109.731 22.928C109.955 22.576 110.238 22.2933 110.579 22.08C110.931 21.8667 111.326 21.7173 111.763 21.632C112.201 21.5467 112.649 21.504 113.107 21.504C113.513 21.504 113.913 21.5467 114.307 21.632C114.702 21.7173 115.054 21.856 115.363 22.048C115.683 22.24 115.939 22.4907 116.131 22.8C116.323 23.0987 116.419 23.4667 116.419 23.904V28.16ZM114.595 25.856C114.318 26.0373 113.977 26.1493 113.571 26.192C113.166 26.224 112.761 26.2773 112.355 26.352C112.163 26.384 111.977 26.432 111.795 26.496C111.614 26.5493 111.454 26.6293 111.315 26.736C111.177 26.832 111.065 26.9653 110.979 27.136C110.905 27.296 110.867 27.4933 110.867 27.728C110.867 27.9307 110.926 28.1013 111.043 28.24C111.161 28.3787 111.299 28.4907 111.459 28.576C111.63 28.6507 111.811 28.704 112.003 28.736C112.206 28.768 112.387 28.784 112.547 28.784C112.75 28.784 112.969 28.7573 113.203 28.704C113.438 28.6507 113.657 28.56 113.859 28.432C114.073 28.304 114.249 28.144 114.387 27.952C114.526 27.7493 114.595 27.504 114.595 27.216V25.856ZM118.382 21.728H120.11V22.944L120.142 22.976C120.419 22.5173 120.782 22.16 121.23 21.904C121.678 21.6373 122.174 21.504 122.718 21.504C123.625 21.504 124.339 21.7387 124.862 22.208C125.385 22.6773 125.646 23.3813 125.646 24.32V30H123.822V24.8C123.801 24.1493 123.662 23.68 123.406 23.392C123.15 23.0933 122.75 22.944 122.206 22.944C121.897 22.944 121.619 23.0027 121.374 23.12C121.129 23.2267 120.921 23.3813 120.75 23.584C120.579 23.776 120.446 24.0053 120.35 24.272C120.254 24.5387 120.206 24.8213 120.206 25.12V30H118.382V21.728ZM134.497 28.16C134.497 28.384 134.524 28.544 134.577 28.64C134.641 28.736 134.759 28.784 134.929 28.784C134.983 28.784 135.047 28.784 135.121 28.784C135.196 28.784 135.281 28.7733 135.377 28.752V30.016C135.313 30.0373 135.228 30.0587 135.121 30.08C135.025 30.112 134.924 30.1387 134.817 30.16C134.711 30.1813 134.604 30.1973 134.497 30.208C134.391 30.2187 134.3 30.224 134.225 30.224C133.852 30.224 133.543 30.1493 133.297 30C133.052 29.8507 132.892 29.5893 132.817 29.216C132.455 29.568 132.007 29.824 131.473 29.984C130.951 30.144 130.444 30.224 129.953 30.224C129.58 30.224 129.223 30.1707 128.881 30.064C128.54 29.968 128.236 29.824 127.969 29.632C127.713 29.4293 127.505 29.1787 127.345 28.88C127.196 28.5707 127.121 28.2133 127.121 27.808C127.121 27.296 127.212 26.88 127.393 26.56C127.585 26.24 127.831 25.9893 128.129 25.808C128.439 25.6267 128.78 25.4987 129.153 25.424C129.537 25.3387 129.921 25.2747 130.305 25.232C130.636 25.168 130.951 25.1253 131.249 25.104C131.548 25.072 131.809 25.024 132.033 24.96C132.268 24.896 132.449 24.8 132.577 24.672C132.716 24.5333 132.785 24.3307 132.785 24.064C132.785 23.8293 132.727 23.6373 132.609 23.488C132.503 23.3387 132.364 23.2267 132.193 23.152C132.033 23.0667 131.852 23.0133 131.649 22.992C131.447 22.96 131.255 22.944 131.073 22.944C130.561 22.944 130.14 23.0507 129.809 23.264C129.479 23.4773 129.292 23.808 129.249 24.256H127.425C127.457 23.7227 127.585 23.28 127.809 22.928C128.033 22.576 128.316 22.2933 128.657 22.08C129.009 21.8667 129.404 21.7173 129.841 21.632C130.279 21.5467 130.727 21.504 131.185 21.504C131.591 21.504 131.991 21.5467 132.385 21.632C132.78 21.7173 133.132 21.856 133.441 22.048C133.761 22.24 134.017 22.4907 134.209 22.8C134.401 23.0987 134.497 23.4667 134.497 23.904V28.16ZM132.673 25.856C132.396 26.0373 132.055 26.1493 131.649 26.192C131.244 26.224 130.839 26.2773 130.433 26.352C130.241 26.384 130.055 26.432 129.873 26.496C129.692 26.5493 129.532 26.6293 129.393 26.736C129.255 26.832 129.143 26.9653 129.057 27.136C128.983 27.296 128.945 27.4933 128.945 27.728C128.945 27.9307 129.004 28.1013 129.121 28.24C129.239 28.3787 129.377 28.4907 129.537 28.576C129.708 28.6507 129.889 28.704 130.081 28.736C130.284 28.768 130.465 28.784 130.625 28.784C130.828 28.784 131.047 28.7573 131.281 28.704C131.516 28.6507 131.735 28.56 131.937 28.432C132.151 28.304 132.327 28.144 132.465 27.952C132.604 27.7493 132.673 27.504 132.673 27.216V25.856ZM144.252 30H142.524V28.88H142.492C142.247 29.36 141.889 29.7067 141.42 29.92C140.951 30.1227 140.455 30.224 139.932 30.224C139.281 30.224 138.711 30.112 138.22 29.888C137.74 29.6533 137.34 29.3387 137.02 28.944C136.7 28.5493 136.46 28.0853 136.3 27.552C136.14 27.008 136.06 26.4267 136.06 25.808C136.06 25.0613 136.161 24.416 136.364 23.872C136.567 23.328 136.833 22.88 137.164 22.528C137.505 22.176 137.889 21.92 138.316 21.76C138.753 21.5893 139.196 21.504 139.644 21.504C139.9 21.504 140.161 21.5307 140.428 21.584C140.695 21.6267 140.951 21.7013 141.196 21.808C141.441 21.9147 141.665 22.0533 141.868 22.224C142.081 22.384 142.257 22.576 142.396 22.8H142.428V18.576H144.252V30ZM137.884 25.952C137.884 26.304 137.927 26.6507 138.012 26.992C138.108 27.3333 138.247 27.6373 138.428 27.904C138.62 28.1707 138.86 28.384 139.148 28.544C139.436 28.704 139.777 28.784 140.172 28.784C140.577 28.784 140.924 28.6987 141.212 28.528C141.511 28.3573 141.751 28.1333 141.932 27.856C142.124 27.5787 142.263 27.2693 142.348 26.928C142.444 26.576 142.492 26.2187 142.492 25.856C142.492 24.9387 142.284 24.224 141.868 23.712C141.463 23.2 140.908 22.944 140.204 22.944C139.777 22.944 139.415 23.0347 139.116 23.216C138.828 23.3867 138.588 23.616 138.396 23.904C138.215 24.1813 138.081 24.5013 137.996 24.864C137.921 25.216 137.884 25.5787 137.884 25.952ZM153.169 28.16C153.169 28.384 153.196 28.544 153.249 28.64C153.313 28.736 153.431 28.784 153.601 28.784C153.655 28.784 153.719 28.784 153.793 28.784C153.868 28.784 153.953 28.7733 154.049 28.752V30.016C153.985 30.0373 153.9 30.0587 153.793 30.08C153.697 30.112 153.596 30.1387 153.489 30.16C153.383 30.1813 153.276 30.1973 153.169 30.208C153.063 30.2187 152.972 30.224 152.897 30.224C152.524 30.224 152.215 30.1493 151.969 30C151.724 29.8507 151.564 29.5893 151.489 29.216C151.127 29.568 150.679 29.824 150.145 29.984C149.623 30.144 149.116 30.224 148.625 30.224C148.252 30.224 147.895 30.1707 147.553 30.064C147.212 29.968 146.908 29.824 146.641 29.632C146.385 29.4293 146.177 29.1787 146.017 28.88C145.868 28.5707 145.793 28.2133 145.793 27.808C145.793 27.296 145.884 26.88 146.065 26.56C146.257 26.24 146.503 25.9893 146.801 25.808C147.111 25.6267 147.452 25.4987 147.825 25.424C148.209 25.3387 148.593 25.2747 148.977 25.232C149.308 25.168 149.623 25.1253 149.921 25.104C150.22 25.072 150.481 25.024 150.705 24.96C150.94 24.896 151.121 24.8 151.249 24.672C151.388 24.5333 151.457 24.3307 151.457 24.064C151.457 23.8293 151.399 23.6373 151.281 23.488C151.175 23.3387 151.036 23.2267 150.865 23.152C150.705 23.0667 150.524 23.0133 150.321 22.992C150.119 22.96 149.927 22.944 149.745 22.944C149.233 22.944 148.812 23.0507 148.481 23.264C148.151 23.4773 147.964 23.808 147.921 24.256H146.097C146.129 23.7227 146.257 23.28 146.481 22.928C146.705 22.576 146.988 22.2933 147.329 22.08C147.681 21.8667 148.076 21.7173 148.513 21.632C148.951 21.5467 149.399 21.504 149.857 21.504C150.263 21.504 150.663 21.5467 151.057 21.632C151.452 21.7173 151.804 21.856 152.113 22.048C152.433 22.24 152.689 22.4907 152.881 22.8C153.073 23.0987 153.169 23.4667 153.169 23.904V28.16ZM151.345 25.856C151.068 26.0373 150.727 26.1493 150.321 26.192C149.916 26.224 149.511 26.2773 149.105 26.352C148.913 26.384 148.727 26.432 148.545 26.496C148.364 26.5493 148.204 26.6293 148.065 26.736C147.927 26.832 147.815 26.9653 147.729 27.136C147.655 27.296 147.617 27.4933 147.617 27.728C147.617 27.9307 147.676 28.1013 147.793 28.24C147.911 28.3787 148.049 28.4907 148.209 28.576C148.38 28.6507 148.561 28.704 148.753 28.736C148.956 28.768 149.137 28.784 149.297 28.784C149.5 28.784 149.719 28.7573 149.953 28.704C150.188 28.6507 150.407 28.56 150.609 28.432C150.823 28.304 150.999 28.144 151.137 27.952C151.276 27.7493 151.345 27.504 151.345 27.216V25.856Z" fill="black"/>
<path d="M205.184 14H203.904L203.6 12.656C203.067 13.264 202.533 13.6853 202 13.92C201.467 14.1547 200.853 14.272 200.16 14.272C199.307 14.272 198.539 14.1173 197.856 13.808C197.184 13.488 196.613 13.056 196.144 12.512C195.675 11.968 195.312 11.3333 195.056 10.608C194.811 9.88267 194.688 9.10933 194.688 8.288C194.688 7.47733 194.811 6.70933 195.056 5.984C195.312 5.25867 195.675 4.624 196.144 4.08C196.613 3.536 197.184 3.104 197.856 2.784C198.539 2.464 199.307 2.304 200.16 2.304C200.779 2.304 201.365 2.38933 201.92 2.56C202.485 2.72 202.987 2.96533 203.424 3.296C203.861 3.616 204.224 4.02133 204.512 4.512C204.8 5.00267 204.981 5.568 205.056 6.208H203.104C203.051 5.83467 202.933 5.50933 202.752 5.232C202.581 4.944 202.363 4.704 202.096 4.512C201.829 4.32 201.531 4.176 201.2 4.08C200.869 3.984 200.523 3.936 200.16 3.936C199.552 3.936 199.024 4.05867 198.576 4.304C198.139 4.54933 197.781 4.88 197.504 5.296C197.227 5.70133 197.019 6.16533 196.88 6.688C196.752 7.21067 196.688 7.744 196.688 8.288C196.688 8.832 196.752 9.36533 196.88 9.888C197.019 10.4107 197.227 10.88 197.504 11.296C197.781 11.7013 198.139 12.0267 198.576 12.272C199.024 12.5173 199.552 12.64 200.16 12.64C200.672 12.6507 201.125 12.5867 201.52 12.448C201.915 12.2987 202.245 12.0907 202.512 11.824C202.789 11.5467 202.997 11.2107 203.136 10.816C203.275 10.4213 203.349 9.984 203.36 9.504H200.32V7.984H205.184V14ZM210.893 14.224C210.231 14.224 209.639 14.1173 209.117 13.904C208.605 13.68 208.167 13.376 207.805 12.992C207.453 12.608 207.181 12.1493 206.989 11.616C206.807 11.0827 206.717 10.496 206.717 9.856C206.717 9.22667 206.807 8.64533 206.989 8.112C207.181 7.57867 207.453 7.12 207.805 6.736C208.167 6.352 208.605 6.05333 209.117 5.84C209.639 5.616 210.231 5.504 210.893 5.504C211.554 5.504 212.141 5.616 212.653 5.84C213.175 6.05333 213.613 6.352 213.965 6.736C214.327 7.12 214.599 7.57867 214.781 8.112C214.973 8.64533 215.069 9.22667 215.069 9.856C215.069 10.496 214.973 11.0827 214.781 11.616C214.599 12.1493 214.327 12.608 213.965 12.992C213.613 13.376 213.175 13.68 212.653 13.904C212.141 14.1173 211.554 14.224 210.893 14.224ZM210.893 12.784C211.298 12.784 211.65 12.6987 211.949 12.528C212.247 12.3573 212.493 12.1333 212.685 11.856C212.877 11.5787 213.015 11.2693 213.101 10.928C213.197 10.576 213.245 10.2187 213.245 9.856C213.245 9.504 213.197 9.152 213.101 8.8C213.015 8.448 212.877 8.13867 212.685 7.872C212.493 7.59467 212.247 7.37067 211.949 7.2C211.65 7.02933 211.298 6.944 210.893 6.944C210.487 6.944 210.135 7.02933 209.837 7.2C209.538 7.37067 209.293 7.59467 209.101 7.872C208.909 8.13867 208.765 8.448 208.669 8.8C208.583 9.152 208.541 9.504 208.541 9.856C208.541 10.2187 208.583 10.576 208.669 10.928C208.765 11.2693 208.909 11.5787 209.101 11.856C209.293 12.1333 209.538 12.3573 209.837 12.528C210.135 12.6987 210.487 12.784 210.893 12.784ZM223.849 14H222.057V12.848H222.025C221.801 13.264 221.465 13.6 221.017 13.856C220.58 14.1013 220.132 14.224 219.673 14.224C218.585 14.224 217.796 13.9573 217.305 13.424C216.825 12.88 216.585 12.064 216.585 10.976V5.728H218.409V10.8C218.409 11.5253 218.548 12.0373 218.825 12.336C219.102 12.6347 219.492 12.784 219.993 12.784C220.377 12.784 220.697 12.7253 220.953 12.608C221.209 12.4907 221.417 12.336 221.577 12.144C221.737 11.9413 221.849 11.7013 221.913 11.424C221.988 11.1467 222.025 10.848 222.025 10.528V5.728H223.849V14ZM224.957 5.728H226.941L229.036 12.08H229.069L231.085 5.728H232.973L230.013 14H227.965L224.957 5.728ZM239.749 9.136C239.728 8.848 239.664 8.57067 239.557 8.304C239.461 8.03733 239.323 7.808 239.141 7.616C238.971 7.41333 238.757 7.25333 238.501 7.136C238.256 7.008 237.979 6.944 237.669 6.944C237.349 6.944 237.056 7.00267 236.789 7.12C236.533 7.22667 236.309 7.38133 236.117 7.584C235.936 7.776 235.787 8.00533 235.669 8.272C235.563 8.53867 235.504 8.82667 235.493 9.136H239.749ZM235.493 10.336C235.493 10.656 235.536 10.9653 235.621 11.264C235.717 11.5627 235.856 11.824 236.037 12.048C236.219 12.272 236.448 12.4533 236.725 12.592C237.003 12.72 237.333 12.784 237.717 12.784C238.251 12.784 238.677 12.672 238.997 12.448C239.328 12.2133 239.573 11.8667 239.733 11.408H241.461C241.365 11.856 241.2 12.256 240.965 12.608C240.731 12.96 240.448 13.2587 240.117 13.504C239.787 13.7387 239.413 13.9147 238.997 14.032C238.592 14.16 238.165 14.224 237.717 14.224C237.067 14.224 236.491 14.1173 235.989 13.904C235.488 13.6907 235.061 13.392 234.709 13.008C234.368 12.624 234.107 12.1653 233.925 11.632C233.755 11.0987 233.669 10.512 233.669 9.872C233.669 9.28533 233.76 8.73067 233.941 8.208C234.133 7.67467 234.4 7.21067 234.741 6.816C235.093 6.41067 235.515 6.09067 236.005 5.856C236.496 5.62133 237.051 5.504 237.669 5.504C238.32 5.504 238.901 5.64267 239.413 5.92C239.936 6.18667 240.368 6.544 240.709 6.992C241.051 7.44 241.296 7.95733 241.445 8.544C241.605 9.12 241.648 9.71733 241.573 10.336H235.493ZM242.96 5.728H244.672V7.328H244.704C244.757 7.104 244.859 6.88533 245.008 6.672C245.168 6.45867 245.355 6.26667 245.568 6.096C245.792 5.91467 246.037 5.77067 246.304 5.664C246.571 5.55733 246.843 5.504 247.12 5.504C247.333 5.504 247.477 5.50933 247.552 5.52C247.637 5.53067 247.723 5.54133 247.808 5.552V7.312C247.68 7.29067 247.547 7.27467 247.408 7.264C247.28 7.24267 247.152 7.232 247.024 7.232C246.715 7.232 246.421 7.296 246.144 7.424C245.877 7.54133 245.643 7.72267 245.44 7.968C245.237 8.20267 245.077 8.496 244.96 8.848C244.843 9.2 244.784 9.60533 244.784 10.064V14H242.96V5.728ZM248.866 5.728H250.594V6.944L250.626 6.976C250.904 6.51733 251.266 6.16 251.714 5.904C252.162 5.63733 252.658 5.504 253.202 5.504C254.109 5.504 254.824 5.73867 255.346 6.208C255.869 6.67733 256.13 7.38133 256.13 8.32V14H254.306V8.8C254.285 8.14933 254.146 7.68 253.89 7.392C253.634 7.09333 253.234 6.944 252.69 6.944C252.381 6.944 252.104 7.00267 251.858 7.12C251.613 7.22667 251.405 7.38133 251.234 7.584C251.064 7.776 250.93 8.00533 250.834 8.272C250.738 8.53867 250.69 8.82133 250.69 9.12V14H248.866V5.728ZM263.734 9.136C263.712 8.848 263.648 8.57067 263.542 8.304C263.446 8.03733 263.307 7.808 263.126 7.616C262.955 7.41333 262.742 7.25333 262.486 7.136C262.24 7.008 261.963 6.944 261.654 6.944C261.334 6.944 261.04 7.00267 260.774 7.12C260.518 7.22667 260.294 7.38133 260.102 7.584C259.92 7.776 259.771 8.00533 259.654 8.272C259.547 8.53867 259.488 8.82667 259.478 9.136H263.734ZM259.478 10.336C259.478 10.656 259.52 10.9653 259.606 11.264C259.702 11.5627 259.84 11.824 260.022 12.048C260.203 12.272 260.432 12.4533 260.71 12.592C260.987 12.72 261.318 12.784 261.702 12.784C262.235 12.784 262.662 12.672 262.982 12.448C263.312 12.2133 263.558 11.8667 263.718 11.408H265.446C265.35 11.856 265.184 12.256 264.95 12.608C264.715 12.96 264.432 13.2587 264.102 13.504C263.771 13.7387 263.398 13.9147 262.982 14.032C262.576 14.16 262.15 14.224 261.702 14.224C261.051 14.224 260.475 14.1173 259.974 13.904C259.472 13.6907 259.046 13.392 258.694 13.008C258.352 12.624 258.091 12.1653 257.91 11.632C257.739 11.0987 257.654 10.512 257.654 9.872C257.654 9.28533 257.744 8.73067 257.926 8.208C258.118 7.67467 258.384 7.21067 258.726 6.816C259.078 6.41067 259.499 6.09067 259.99 5.856C260.48 5.62133 261.035 5.504 261.654 5.504C262.304 5.504 262.886 5.64267 263.398 5.92C263.92 6.18667 264.352 6.544 264.694 6.992C265.035 7.44 265.28 7.95733 265.43 8.544C265.59 9.12 265.632 9.71733 265.558 10.336H259.478ZM266.944 5.728H268.672V6.88H268.72C268.859 6.67733 269.008 6.49067 269.168 6.32C269.328 6.14933 269.504 6.00533 269.696 5.888C269.899 5.77067 270.128 5.68 270.384 5.616C270.64 5.54133 270.934 5.504 271.264 5.504C271.766 5.504 272.23 5.616 272.656 5.84C273.094 6.064 273.403 6.41067 273.584 6.88C273.894 6.45333 274.251 6.11733 274.656 5.872C275.062 5.62667 275.568 5.504 276.176 5.504C277.051 5.504 277.728 5.71733 278.208 6.144C278.699 6.57067 278.944 7.28533 278.944 8.288V14H277.12V9.168C277.12 8.83733 277.11 8.53867 277.088 8.272C277.067 7.99467 277.003 7.76 276.896 7.568C276.8 7.36533 276.651 7.21067 276.448 7.104C276.246 6.99733 275.968 6.944 275.616 6.944C274.998 6.944 274.55 7.136 274.272 7.52C273.995 7.904 273.856 8.448 273.856 9.152V14H272.032V8.688C272.032 8.112 271.926 7.68 271.712 7.392C271.51 7.09333 271.131 6.944 270.576 6.944C270.342 6.944 270.112 6.992 269.888 7.088C269.675 7.184 269.483 7.32267 269.312 7.504C269.152 7.68533 269.019 7.90933 268.912 8.176C268.816 8.44267 268.768 8.74667 268.768 9.088V14H266.944V5.728ZM286.546 9.136C286.525 8.848 286.461 8.57067 286.354 8.304C286.258 8.03733 286.12 7.808 285.938 7.616C285.768 7.41333 285.554 7.25333 285.298 7.136C285.053 7.008 284.776 6.944 284.466 6.944C284.146 6.944 283.853 7.00267 283.586 7.12C283.33 7.22667 283.106 7.38133 282.914 7.584C282.733 7.776 282.584 8.00533 282.466 8.272C282.36 8.53867 282.301 8.82667 282.29 9.136H286.546ZM282.29 10.336C282.29 10.656 282.333 10.9653 282.418 11.264C282.514 11.5627 282.653 11.824 282.834 12.048C283.016 12.272 283.245 12.4533 283.522 12.592C283.8 12.72 284.13 12.784 284.514 12.784C285.048 12.784 285.474 12.672 285.794 12.448C286.125 12.2133 286.37 11.8667 286.53 11.408H288.258C288.162 11.856 287.997 12.256 287.762 12.608C287.528 12.96 287.245 13.2587 286.914 13.504C286.584 13.7387 286.21 13.9147 285.794 14.032C285.389 14.16 284.962 14.224 284.514 14.224C283.864 14.224 283.288 14.1173 282.786 13.904C282.285 13.6907 281.858 13.392 281.506 13.008C281.165 12.624 280.904 12.1653 280.722 11.632C280.552 11.0987 280.466 10.512 280.466 9.872C280.466 9.28533 280.557 8.73067 280.738 8.208C280.93 7.67467 281.197 7.21067 281.538 6.816C281.89 6.41067 282.312 6.09067 282.802 5.856C283.293 5.62133 283.848 5.504 284.466 5.504C285.117 5.504 285.698 5.64267 286.21 5.92C286.733 6.18667 287.165 6.544 287.506 6.992C287.848 7.44 288.093 7.95733 288.242 8.544C288.402 9.12 288.445 9.71733 288.37 10.336H282.29ZM289.757 5.728H291.485V6.944L291.517 6.976C291.794 6.51733 292.157 6.16 292.605 5.904C293.053 5.63733 293.549 5.504 294.093 5.504C295 5.504 295.714 5.73867 296.237 6.208C296.76 6.67733 297.021 7.38133 297.021 8.32V14H295.197V8.8C295.176 8.14933 295.037 7.68 294.781 7.392C294.525 7.09333 294.125 6.944 293.581 6.944C293.272 6.944 292.994 7.00267 292.749 7.12C292.504 7.22667 292.296 7.38133 292.125 7.584C291.954 7.776 291.821 8.00533 291.725 8.272C291.629 8.53867 291.581 8.82133 291.581 9.12V14H289.757V5.728ZM298.112 5.728H299.488V3.248H301.312V5.728H302.96V7.088H301.312V11.504C301.312 11.696 301.318 11.8613 301.328 12C301.35 12.1387 301.387 12.256 301.44 12.352C301.504 12.448 301.595 12.5227 301.712 12.576C301.83 12.6187 301.99 12.64 302.192 12.64C302.32 12.64 302.448 12.64 302.576 12.64C302.704 12.6293 302.832 12.608 302.96 12.576V13.984C302.758 14.0053 302.56 14.0267 302.368 14.048C302.176 14.0693 301.979 14.08 301.776 14.08C301.296 14.08 300.907 14.0373 300.608 13.952C300.32 13.856 300.091 13.7227 299.92 13.552C299.76 13.3707 299.648 13.1467 299.584 12.88C299.531 12.6133 299.499 12.3093 299.488 11.968V7.088H298.112V5.728ZM202.752 30H201.024V28.88H200.992C200.747 29.36 200.389 29.7067 199.92 29.92C199.451 30.1227 198.955 30.224 198.432 30.224C197.781 30.224 197.211 30.112 196.72 29.888C196.24 29.6533 195.84 29.3387 195.52 28.944C195.2 28.5493 194.96 28.0853 194.8 27.552C194.64 27.008 194.56 26.4267 194.56 25.808C194.56 25.0613 194.661 24.416 194.864 23.872C195.067 23.328 195.333 22.88 195.664 22.528C196.005 22.176 196.389 21.92 196.816 21.76C197.253 21.5893 197.696 21.504 198.144 21.504C198.4 21.504 198.661 21.5307 198.928 21.584C199.195 21.6267 199.451 21.7013 199.696 21.808C199.941 21.9147 200.165 22.0533 200.368 22.224C200.581 22.384 200.757 22.576 200.896 22.8H200.928V18.576H202.752V30ZM196.384 25.952C196.384 26.304 196.427 26.6507 196.512 26.992C196.608 27.3333 196.747 27.6373 196.928 27.904C197.12 28.1707 197.36 28.384 197.648 28.544C197.936 28.704 198.277 28.784 198.672 28.784C199.077 28.784 199.424 28.6987 199.712 28.528C200.011 28.3573 200.251 28.1333 200.432 27.856C200.624 27.5787 200.763 27.2693 200.848 26.928C200.944 26.576 200.992 26.2187 200.992 25.856C200.992 24.9387 200.784 24.224 200.368 23.712C199.963 23.2 199.408 22.944 198.704 22.944C198.277 22.944 197.915 23.0347 197.616 23.216C197.328 23.3867 197.088 23.616 196.896 23.904C196.715 24.1813 196.581 24.5013 196.496 24.864C196.421 25.216 196.384 25.5787 196.384 25.952ZM212.005 30H210.213V28.848H210.181C209.957 29.264 209.621 29.6 209.173 29.856C208.736 30.1013 208.288 30.224 207.829 30.224C206.741 30.224 205.952 29.9573 205.461 29.424C204.981 28.88 204.741 28.064 204.741 26.976V21.728H206.565V26.8C206.565 27.5253 206.704 28.0373 206.981 28.336C207.259 28.6347 207.648 28.784 208.149 28.784C208.533 28.784 208.853 28.7253 209.109 28.608C209.365 28.4907 209.573 28.336 209.733 28.144C209.893 27.9413 210.005 27.7013 210.069 27.424C210.144 27.1467 210.181 26.848 210.181 26.528V21.728H212.005V30ZM226.35 22.208C226.265 21.8773 226.147 21.5733 225.998 21.296C225.849 21.0187 225.657 20.7787 225.422 20.576C225.187 20.3733 224.91 20.2187 224.59 20.112C224.281 19.9947 223.918 19.936 223.502 19.936C222.894 19.936 222.366 20.0587 221.918 20.304C221.481 20.5493 221.123 20.88 220.846 21.296C220.569 21.7013 220.361 22.1653 220.222 22.688C220.094 23.2107 220.03 23.744 220.03 24.288C220.03 24.832 220.094 25.3653 220.222 25.888C220.361 26.4107 220.569 26.88 220.846 27.296C221.123 27.7013 221.481 28.0267 221.918 28.272C222.366 28.5173 222.894 28.64 223.502 28.64C223.95 28.64 224.345 28.5653 224.686 28.416C225.027 28.256 225.321 28.0427 225.566 27.776C225.811 27.4987 226.003 27.1787 226.142 26.816C226.281 26.4533 226.371 26.064 226.414 25.648H228.366C228.323 26.3307 228.174 26.9547 227.918 27.52C227.673 28.0853 227.337 28.576 226.91 28.992C226.483 29.3973 225.982 29.712 225.406 29.936C224.83 30.16 224.195 30.272 223.502 30.272C222.649 30.272 221.881 30.1173 221.198 29.808C220.526 29.488 219.955 29.056 219.486 28.512C219.017 27.968 218.654 27.3333 218.398 26.608C218.153 25.8827 218.03 25.1093 218.03 24.288C218.03 23.4773 218.153 22.7093 218.398 21.984C218.654 21.2587 219.017 20.624 219.486 20.08C219.955 19.536 220.526 19.104 221.198 18.784C221.881 18.464 222.649 18.304 223.502 18.304C224.142 18.304 224.745 18.3947 225.31 18.576C225.875 18.7467 226.371 19.0027 226.798 19.344C227.235 19.6747 227.587 20.08 227.854 20.56C228.121 21.04 228.286 21.5893 228.35 22.208H226.35ZM236.857 28.16C236.857 28.384 236.883 28.544 236.937 28.64C237.001 28.736 237.118 28.784 237.289 28.784C237.342 28.784 237.406 28.784 237.481 28.784C237.555 28.784 237.641 28.7733 237.737 28.752V30.016C237.673 30.0373 237.587 30.0587 237.481 30.08C237.385 30.112 237.283 30.1387 237.177 30.16C237.07 30.1813 236.963 30.1973 236.857 30.208C236.75 30.2187 236.659 30.224 236.585 30.224C236.211 30.224 235.902 30.1493 235.657 30C235.411 29.8507 235.251 29.5893 235.177 29.216C234.814 29.568 234.366 29.824 233.833 29.984C233.31 30.144 232.803 30.224 232.313 30.224C231.939 30.224 231.582 30.1707 231.241 30.064C230.899 29.968 230.595 29.824 230.329 29.632C230.073 29.4293 229.865 29.1787 229.705 28.88C229.555 28.5707 229.481 28.2133 229.481 27.808C229.481 27.296 229.571 26.88 229.753 26.56C229.945 26.24 230.19 25.9893 230.489 25.808C230.798 25.6267 231.139 25.4987 231.513 25.424C231.897 25.3387 232.281 25.2747 232.665 25.232C232.995 25.168 233.31 25.1253 233.609 25.104C233.907 25.072 234.169 25.024 234.393 24.96C234.627 24.896 234.809 24.8 234.937 24.672C235.075 24.5333 235.145 24.3307 235.145 24.064C235.145 23.8293 235.086 23.6373 234.969 23.488C234.862 23.3387 234.723 23.2267 234.553 23.152C234.393 23.0667 234.211 23.0133 234.009 22.992C233.806 22.96 233.614 22.944 233.433 22.944C232.921 22.944 232.499 23.0507 232.169 23.264C231.838 23.4773 231.651 23.808 231.609 24.256H229.785C229.817 23.7227 229.945 23.28 230.169 22.928C230.393 22.576 230.675 22.2933 231.017 22.08C231.369 21.8667 231.763 21.7173 232.201 21.632C232.638 21.5467 233.086 21.504 233.545 21.504C233.95 21.504 234.35 21.5467 234.745 21.632C235.139 21.7173 235.491 21.856 235.801 22.048C236.121 22.24 236.377 22.4907 236.569 22.8C236.761 23.0987 236.857 23.4667 236.857 23.904V28.16ZM235.033 25.856C234.755 26.0373 234.414 26.1493 234.009 26.192C233.603 26.224 233.198 26.2773 232.793 26.352C232.601 26.384 232.414 26.432 232.233 26.496C232.051 26.5493 231.891 26.6293 231.753 26.736C231.614 26.832 231.502 26.9653 231.417 27.136C231.342 27.296 231.305 27.4933 231.305 27.728C231.305 27.9307 231.363 28.1013 231.481 28.24C231.598 28.3787 231.737 28.4907 231.897 28.576C232.067 28.6507 232.249 28.704 232.441 28.736C232.643 28.768 232.825 28.784 232.985 28.784C233.187 28.784 233.406 28.7573 233.641 28.704C233.875 28.6507 234.094 28.56 234.297 28.432C234.51 28.304 234.686 28.144 234.825 27.952C234.963 27.7493 235.033 27.504 235.033 27.216V25.856ZM238.819 21.728H240.547V22.944L240.579 22.976C240.857 22.5173 241.219 22.16 241.667 21.904C242.115 21.6373 242.611 21.504 243.155 21.504C244.062 21.504 244.777 21.7387 245.299 22.208C245.822 22.6773 246.083 23.3813 246.083 24.32V30H244.259V24.8C244.238 24.1493 244.099 23.68 243.843 23.392C243.587 23.0933 243.187 22.944 242.643 22.944C242.334 22.944 242.057 23.0027 241.811 23.12C241.566 23.2267 241.358 23.3813 241.187 23.584C241.017 23.776 240.883 24.0053 240.787 24.272C240.691 24.5387 240.643 24.8213 240.643 25.12V30H238.819V21.728ZM254.935 28.16C254.935 28.384 254.962 28.544 255.015 28.64C255.079 28.736 255.196 28.784 255.367 28.784C255.42 28.784 255.484 28.784 255.559 28.784C255.634 28.784 255.719 28.7733 255.815 28.752V30.016C255.751 30.0373 255.666 30.0587 255.559 30.08C255.463 30.112 255.362 30.1387 255.255 30.16C255.148 30.1813 255.042 30.1973 254.935 30.208C254.828 30.2187 254.738 30.224 254.663 30.224C254.29 30.224 253.98 30.1493 253.735 30C253.49 29.8507 253.33 29.5893 253.255 29.216C252.892 29.568 252.444 29.824 251.911 29.984C251.388 30.144 250.882 30.224 250.391 30.224C250.018 30.224 249.66 30.1707 249.319 30.064C248.978 29.968 248.674 29.824 248.407 29.632C248.151 29.4293 247.943 29.1787 247.783 28.88C247.634 28.5707 247.559 28.2133 247.559 27.808C247.559 27.296 247.65 26.88 247.831 26.56C248.023 26.24 248.268 25.9893 248.567 25.808C248.876 25.6267 249.218 25.4987 249.591 25.424C249.975 25.3387 250.359 25.2747 250.743 25.232C251.074 25.168 251.388 25.1253 251.687 25.104C251.986 25.072 252.247 25.024 252.471 24.96C252.706 24.896 252.887 24.8 253.015 24.672C253.154 24.5333 253.223 24.3307 253.223 24.064C253.223 23.8293 253.164 23.6373 253.047 23.488C252.94 23.3387 252.802 23.2267 252.631 23.152C252.471 23.0667 252.29 23.0133 252.087 22.992C251.884 22.96 251.692 22.944 251.511 22.944C250.999 22.944 250.578 23.0507 250.247 23.264C249.916 23.4773 249.73 23.808 249.687 24.256H247.863C247.895 23.7227 248.023 23.28 248.247 22.928C248.471 22.576 248.754 22.2933 249.095 22.08C249.447 21.8667 249.842 21.7173 250.279 21.632C250.716 21.5467 251.164 21.504 251.623 21.504C252.028 21.504 252.428 21.5467 252.823 21.632C253.218 21.7173 253.57 21.856 253.879 22.048C254.199 22.24 254.455 22.4907 254.647 22.8C254.839 23.0987 254.935 23.4667 254.935 23.904V28.16ZM253.111 25.856C252.834 26.0373 252.492 26.1493 252.087 26.192C251.682 26.224 251.276 26.2773 250.871 26.352C250.679 26.384 250.492 26.432 250.311 26.496C250.13 26.5493 249.97 26.6293 249.831 26.736C249.692 26.832 249.58 26.9653 249.495 27.136C249.42 27.296 249.383 27.4933 249.383 27.728C249.383 27.9307 249.442 28.1013 249.559 28.24C249.676 28.3787 249.815 28.4907 249.975 28.576C250.146 28.6507 250.327 28.704 250.519 28.736C250.722 28.768 250.903 28.784 251.063 28.784C251.266 28.784 251.484 28.7573 251.719 28.704C251.954 28.6507 252.172 28.56 252.375 28.432C252.588 28.304 252.764 28.144 252.903 27.952C253.042 27.7493 253.111 27.504 253.111 27.216V25.856ZM264.69 30H262.962V28.88H262.93C262.684 29.36 262.327 29.7067 261.858 29.92C261.388 30.1227 260.892 30.224 260.37 30.224C259.719 30.224 259.148 30.112 258.658 29.888C258.178 29.6533 257.778 29.3387 257.458 28.944C257.138 28.5493 256.898 28.0853 256.738 27.552C256.578 27.008 256.498 26.4267 256.498 25.808C256.498 25.0613 256.599 24.416 256.802 23.872C257.004 23.328 257.271 22.88 257.602 22.528C257.943 22.176 258.327 21.92 258.754 21.76C259.191 21.5893 259.634 21.504 260.082 21.504C260.338 21.504 260.599 21.5307 260.866 21.584C261.132 21.6267 261.388 21.7013 261.634 21.808C261.879 21.9147 262.103 22.0533 262.306 22.224C262.519 22.384 262.695 22.576 262.834 22.8H262.866V18.576H264.69V30ZM258.322 25.952C258.322 26.304 258.364 26.6507 258.45 26.992C258.546 27.3333 258.684 27.6373 258.866 27.904C259.058 28.1707 259.298 28.384 259.586 28.544C259.874 28.704 260.215 28.784 260.61 28.784C261.015 28.784 261.362 28.6987 261.65 28.528C261.948 28.3573 262.188 28.1333 262.37 27.856C262.562 27.5787 262.7 27.2693 262.786 26.928C262.882 26.576 262.93 26.2187 262.93 25.856C262.93 24.9387 262.722 24.224 262.306 23.712C261.9 23.2 261.346 22.944 260.641 22.944C260.215 22.944 259.852 23.0347 259.554 23.216C259.266 23.3867 259.026 23.616 258.834 23.904C258.652 24.1813 258.519 24.5013 258.434 24.864C258.359 25.216 258.322 25.5787 258.322 25.952ZM273.607 28.16C273.607 28.384 273.633 28.544 273.687 28.64C273.751 28.736 273.868 28.784 274.039 28.784C274.092 28.784 274.156 28.784 274.231 28.784C274.305 28.784 274.391 28.7733 274.487 28.752V30.016C274.423 30.0373 274.337 30.0587 274.231 30.08C274.135 30.112 274.033 30.1387 273.927 30.16C273.82 30.1813 273.713 30.1973 273.607 30.208C273.5 30.2187 273.409 30.224 273.335 30.224C272.961 30.224 272.652 30.1493 272.407 30C272.161 29.8507 272.001 29.5893 271.927 29.216C271.564 29.568 271.116 29.824 270.583 29.984C270.06 30.144 269.553 30.224 269.063 30.224C268.689 30.224 268.332 30.1707 267.991 30.064C267.649 29.968 267.345 29.824 267.079 29.632C266.823 29.4293 266.615 29.1787 266.455 28.88C266.305 28.5707 266.231 28.2133 266.231 27.808C266.231 27.296 266.321 26.88 266.503 26.56C266.695 26.24 266.94 25.9893 267.239 25.808C267.548 25.6267 267.889 25.4987 268.263 25.424C268.647 25.3387 269.031 25.2747 269.415 25.232C269.745 25.168 270.06 25.1253 270.359 25.104C270.657 25.072 270.919 25.024 271.143 24.96C271.377 24.896 271.559 24.8 271.687 24.672C271.825 24.5333 271.895 24.3307 271.895 24.064C271.895 23.8293 271.836 23.6373 271.719 23.488C271.612 23.3387 271.473 23.2267 271.303 23.152C271.143 23.0667 270.961 23.0133 270.759 22.992C270.556 22.96 270.364 22.944 270.183 22.944C269.671 22.944 269.249 23.0507 268.919 23.264C268.588 23.4773 268.401 23.808 268.359 24.256H266.535C266.567 23.7227 266.695 23.28 266.919 22.928C267.143 22.576 267.425 22.2933 267.767 22.08C268.119 21.8667 268.513 21.7173 268.951 21.632C269.388 21.5467 269.836 21.504 270.295 21.504C270.7 21.504 271.1 21.5467 271.495 21.632C271.889 21.7173 272.241 21.856 272.551 22.048C272.871 22.24 273.127 22.4907 273.319 22.8C273.511 23.0987 273.607 23.4667 273.607 23.904V28.16ZM271.783 25.856C271.505 26.0373 271.164 26.1493 270.759 26.192C270.353 26.224 269.948 26.2773 269.543 26.352C269.351 26.384 269.164 26.432 268.983 26.496C268.801 26.5493 268.641 26.6293 268.503 26.736C268.364 26.832 268.252 26.9653 268.167 27.136C268.092 27.296 268.055 27.4933 268.055 27.728C268.055 27.9307 268.113 28.1013 268.231 28.24C268.348 28.3787 268.487 28.4907 268.647 28.576C268.817 28.6507 268.999 28.704 269.191 28.736C269.393 28.768 269.575 28.784 269.735 28.784C269.937 28.784 270.156 28.7573 270.391 28.704C270.625 28.6507 270.844 28.56 271.047 28.432C271.26 28.304 271.436 28.144 271.575 27.952C271.713 27.7493 271.783 27.504 271.783 27.216V25.856Z" fill="black"/>
<defs>
<clipPath id="clip0_141_1425">
<rect width="54" height="27" fill="white" transform="translate(0 3)"/>
</clipPath>
</defs>
</svg>
