<svg width="36" height="36" viewBox="0 0 36 36" fill="none" xmlns="http://www.w3.org/2000/svg">
<rect x="1" y="1" width="34" height="34" rx="7" fill="#8CD0F2" stroke="#304760" stroke-width="2"/>
<path d="M2 8C2 4.68629 4.68629 2 8 2H28C31.3137 2 34 4.68629 34 8V20H2V8Z" fill="white"/>
<path d="M16 20H8V28L16 20Z" fill="#304760"/>
<rect width="16" height="16" transform="translate(20 20)" fill="black"/>
<path d="M28.0106 22L27.0795 23.9606C26.9932 24.1307 26.844 24.1064 26.7038 24.0167L25.8194 23.4877L26.391 26.4072C26.4845 26.781 26.1861 26.9511 25.9758 26.6913L24.7858 25.3082L24.4497 26.024C24.3634 26.2109 24.2699 26.2932 23.9338 26.2109L22.7294 25.9437L23.1986 27.523C23.2687 27.7604 23.2615 27.8725 23.1285 27.979L22.6665 28.2725L25.1633 30.3976C25.3754 30.5845 25.3502 30.7714 25.2568 31.048L24.9835 31.7713L27.1029 31.3489C27.5648 31.2498 27.7608 31.2424 27.7608 31.5096L27.6673 33.9216H28.354L28.2605 31.5021C28.2677 31.2667 28.4636 31.2666 28.7458 31.3395L31.0305 31.7694L30.804 31.0461C30.7105 30.7452 30.6243 30.663 30.8741 30.3957L33.3332 28.2407L32.9107 28.022C32.6914 27.923 32.7849 27.7529 32.8317 27.5491V27.5155L33.2307 25.9549L32.0425 26.2147L32.037 26.2157C31.8348 26.2545 31.6821 26.2837 31.5806 26.067L31.275 25.3437L30.1245 26.6221C29.81 26.981 29.5206 26.8258 29.6302 26.2969L30.1551 23.6036L29.348 24.0186C29.1611 24.1157 29.0658 24.1326 28.9489 23.9288L28.0106 22Z" fill="white"/>
<rect x="8" y="14" width="12" height="2" fill="#304760"/>
<rect x="8" y="10" width="20" height="2" fill="#304760"/>
<rect x="8" y="6" width="20" height="2" fill="#304760"/>
</svg>
